<svg width="120" height="120" viewBox="0 0 120 120" fill="none" xmlns="http://www.w3.org/2000/svg">
<g filter="url(#filter0_d_308_2)">
<circle cx="60" cy="56" r="56" fill="#AC65E4"/>
</g>
<path d="M81.813 52.8594L44.0092 52.8594L55.5799 39.1578C55.8478 38.84 56.0496 38.4733 56.1737 38.0787C56.2979 37.684 56.342 37.2691 56.3035 36.8576C56.2258 36.0267 55.8164 35.2601 55.1655 34.7267C54.5146 34.1933 53.6753 33.9367 52.8325 34.0133C51.9896 34.0899 51.2122 34.4935 50.6711 35.1353L34.7336 53.9907C34.6264 54.1407 34.5305 54.2982 34.4467 54.4621C34.4467 54.6192 34.2874 54.7135 34.2236 54.8706C34.0791 55.231 34.0035 55.6145 34.0005 56.002C34.0035 56.3894 34.0791 56.773 34.2236 57.1333C34.2236 57.2904 34.383 57.3847 34.4467 57.5418C34.5305 57.7057 34.6264 57.8632 34.7336 58.0132L50.6711 76.8687C50.9708 77.2234 51.3461 77.5087 51.7703 77.7042C52.1945 77.8998 52.6572 78.0007 53.1255 78C53.8703 78.0014 54.592 77.7457 55.1655 77.2772C55.4883 77.0134 55.7551 76.6894 55.9506 76.3238C56.1462 75.9581 56.2666 75.558 56.3051 75.1464C56.3436 74.7348 56.2994 74.3198 56.1749 73.9251C56.0505 73.5304 55.8483 73.1637 55.5799 72.8462L44.0092 59.1445L81.813 59.1445C82.6584 59.1445 83.4691 58.8134 84.0669 58.2241C84.6647 57.6348 85.0005 56.8354 85.0005 56.002C85.0005 55.1685 84.6647 54.3692 84.0669 53.7798C83.4691 53.1905 82.6584 52.8594 81.813 52.8594Z" fill="white"/>
<defs>
<filter id="filter0_d_308_2" x="0" y="0" width="120" height="120" filterUnits="userSpaceOnUse" color-interpolation-filters="sRGB">
<feFlood flood-opacity="0" result="BackgroundImageFix"/>
<feColorMatrix in="SourceAlpha" type="matrix" values="0 0 0 0 0 0 0 0 0 0 0 0 0 0 0 0 0 0 127 0" result="hardAlpha"/>
<feOffset dy="4"/>
<feGaussianBlur stdDeviation="2"/>
<feComposite in2="hardAlpha" operator="out"/>
<feColorMatrix type="matrix" values="0 0 0 0 0 0 0 0 0 0 0 0 0 0 0 0 0 0 0.25 0"/>
<feBlend mode="normal" in2="BackgroundImageFix" result="effect1_dropShadow_308_2"/>
<feBlend mode="normal" in="SourceGraphic" in2="effect1_dropShadow_308_2" result="shape"/>
</filter>
</defs>
</svg>
