<svg width="43" height="34" fill="none" xmlns="http://www.w3.org/2000/svg"><path d="M36.55 0H6.45C4.74 0 3.099.672 1.89 1.867A6.338 6.338 0 0 0 0 6.375v21.25c0 1.69.68 3.312 1.89 4.508A6.488 6.488 0 0 0 6.45 34h30.1c1.71 0 3.351-.672 4.56-1.867A6.338 6.338 0 0 0 43 27.625V6.375c0-1.69-.68-3.312-1.89-4.508A6.489 6.489 0 0 0 36.55 0Zm-1.44 4.25L21.5 14.344 7.89 4.25h27.22Zm1.44 25.5H6.45c-.57 0-1.117-.224-1.52-.622a2.113 2.113 0 0 1-.63-1.503V6.906L20.21 18.7a2.167 2.167 0 0 0 2.58 0L38.7 6.906v20.719c0 .564-.227 1.104-.63 1.503-.403.398-.95.622-1.52.622Z" fill="#231F20"/></svg>