<svg width="729" height="97" fill="none" xmlns="http://www.w3.org/2000/svg"><rect y="18" width="729" height="79" rx="25" fill="#8034BB"/><rect width="729" height="79" rx="25" fill="#AC65E4"/><g filter="url(#a)"><path d="M32.464 52.36c-.672 0-1.164-.108-1.476-.324a1.199 1.199 0 0 1-.576-.792 5.336 5.336 0 0 1-.108-1.116V29.356c0-.816.156-1.38.468-1.692.336-.312.936-.468 1.8-.468h14.04c.408 0 .768.048 1.08.144.336.072.6.264.792.576.192.288.288.78.288 1.476 0 .672-.108 1.164-.324 1.476a1.199 1.199 0 0 1-.792.576 4.834 4.834 0 0 1-1.08.108H34.66V37.6h8.208c.408 0 .756.048 1.044.144.288.072.516.24.684.504.168.264.252.708.252 1.332 0 .6-.084 1.044-.252 1.332a1.118 1.118 0 0 1-.72.504 7.175 7.175 0 0 1-1.08.072H34.66v6.48h11.952c.408 0 .768.048 1.08.144.336.072.6.264.792.576.192.312.288.804.288 1.476 0 .672-.108 1.164-.324 1.476a1.199 1.199 0 0 1-.792.576 3.678 3.678 0 0 1-1.08.144H32.464Zm21.75-.036c-.647 0-1.127-.108-1.44-.324a1.217 1.217 0 0 1-.54-.756 5.336 5.336 0 0 1-.107-1.116V36.664c0-.384.036-.732.108-1.044.072-.312.264-.552.576-.72.312-.192.792-.288 1.44-.288.576 0 1.008.072 1.296.216.288.144.48.324.576.54.096.216.144.432.144.648.024.216.048.384.072.504l-.144 1.152c.144-.384.384-.756.72-1.116.336-.36.744-.684 1.224-.972.48-.312.996-.552 1.548-.72a5.543 5.543 0 0 1 1.764-.288c1.128 0 2.136.204 3.024.612a6.423 6.423 0 0 1 2.268 1.728c.648.744 1.14 1.632 1.476 2.664.336 1.008.504 2.148.504 3.42v7.164c0 .408-.048.78-.144 1.116a1.217 1.217 0 0 1-.54.756c-.288.192-.78.288-1.476.288-.672 0-1.164-.108-1.476-.324-.312-.192-.504-.444-.576-.756a5.336 5.336 0 0 1-.108-1.116v-7.164c0-.864-.156-1.608-.468-2.232a3.152 3.152 0 0 0-1.296-1.44c-.552-.336-1.26-.504-2.124-.504-.84 0-1.572.18-2.196.54a3.47 3.47 0 0 0-1.44 1.44c-.336.624-.504 1.356-.504 2.196v7.2c0 .408-.036.78-.108 1.116-.072.312-.264.564-.576.756-.288.192-.78.288-1.476.288Zm26.59.108c-1.153 0-2.28-.192-3.385-.576a9.75 9.75 0 0 1-2.952-1.764 8.768 8.768 0 0 1-2.088-2.808c-.504-1.128-.756-2.4-.756-3.816s.252-2.676.756-3.78a8.768 8.768 0 0 1 2.088-2.808 9.3 9.3 0 0 1 2.916-1.764 9.398 9.398 0 0 1 3.348-.612c.84 0 1.632.12 2.376.36.768.24 1.428.528 1.98.864.552.336.948.672 1.188 1.008.312.288.576.564.792.828.216.264.288.588.216.972-.072.24-.18.468-.324.684a5.813 5.813 0 0 1-.54.612c-.576.648-1.14.888-1.692.72a18.726 18.726 0 0 1-.936-.54 12.634 12.634 0 0 0-.972-.54 5.167 5.167 0 0 0-.972-.468 3.299 3.299 0 0 0-1.116-.18c-.912 0-1.728.204-2.448.612a4.294 4.294 0 0 0-1.656 1.62c-.384.696-.576 1.5-.576 2.412 0 .912.192 1.728.576 2.448.408.696.96 1.248 1.656 1.656.696.384 1.488.576 2.376.576.432 0 .84-.048 1.224-.144.408-.12.768-.264 1.08-.432a4.13 4.13 0 0 0 .756-.576c.264-.168.504-.324.72-.468.216-.144.444-.216.684-.216.288 0 .564.108.828.324.288.192.6.504.936.936.312.36.48.708.504 1.044.048.336-.024.66-.216.972-.168.312-.456.6-.864.864-.288.288-.72.588-1.296.9-.552.288-1.2.54-1.944.756a7.85 7.85 0 0 1-2.268.324Zm17.957.144a9.213 9.213 0 0 1-3.384-.648 10.205 10.205 0 0 1-2.952-1.908 9.645 9.645 0 0 1-2.088-2.88c-.504-1.104-.756-2.316-.756-3.636 0-1.272.24-2.46.72-3.564a9.366 9.366 0 0 1 1.98-2.916c.84-.84 1.8-1.488 2.88-1.944a8.752 8.752 0 0 1 3.528-.72c1.68 0 3.204.408 4.572 1.224a9.02 9.02 0 0 1 3.276 3.24c.816 1.368 1.224 2.916 1.224 4.644 0 1.368-.252 2.616-.756 3.744a9.142 9.142 0 0 1-2.052 2.88 9.508 9.508 0 0 1-2.916 1.836 8.572 8.572 0 0 1-3.276.648Zm-.072-4.248c.792 0 1.548-.192 2.268-.576a4.78 4.78 0 0 0 1.8-1.728c.48-.744.72-1.62.72-2.628 0-.936-.216-1.764-.648-2.484a4.408 4.408 0 0 0-1.692-1.692c-.72-.408-1.548-.612-2.484-.612-.888 0-1.692.216-2.412.648a4.594 4.594 0 0 0-1.728 1.728c-.408.72-.612 1.536-.612 2.448 0 1.008.228 1.884.684 2.628a4.958 4.958 0 0 0 1.764 1.692 5.035 5.035 0 0 0 2.34.576Zm14.026 3.996c-.648 0-1.128-.108-1.44-.324a1.217 1.217 0 0 1-.54-.756 5.336 5.336 0 0 1-.108-1.116V36.664c0-.384.036-.732.108-1.044.072-.312.264-.552.576-.72.312-.192.792-.288 1.44-.288.576 0 1.008.072 1.296.216.288.144.48.324.576.54.096.216.144.432.144.648.024.216.048.384.072.504l-.144 1.152c.144-.384.384-.756.72-1.116.336-.36.744-.684 1.224-.972.48-.312.996-.552 1.548-.72a5.543 5.543 0 0 1 1.764-.288c1.128 0 2.136.204 3.024.612a6.423 6.423 0 0 1 2.268 1.728c.648.744 1.14 1.632 1.476 2.664.336 1.008.504 2.148.504 3.42v7.164c0 .408-.048.78-.144 1.116a1.217 1.217 0 0 1-.54.756c-.288.192-.78.288-1.476.288-.672 0-1.164-.108-1.476-.324-.312-.192-.504-.444-.576-.756a5.336 5.336 0 0 1-.108-1.116v-7.164c0-.864-.156-1.608-.468-2.232a3.152 3.152 0 0 0-1.296-1.44c-.552-.336-1.26-.504-2.124-.504-.84 0-1.572.18-2.196.54a3.47 3.47 0 0 0-1.44 1.44c-.336.624-.504 1.356-.504 2.196v7.2c0 .408-.036.78-.108 1.116-.072.312-.264.564-.576.756-.288.192-.78.288-1.476.288Zm26.417.036c-1.176 0-2.184-.12-3.024-.36-.84-.24-1.524-.612-2.052-1.116-.528-.504-.924-1.152-1.188-1.944-.24-.816-.36-1.776-.36-2.88V30.796c0-.432.036-.804.108-1.116.096-.312.288-.552.576-.72.312-.192.792-.288 1.44-.288.672 0 1.152.096 1.44.288.312.192.504.456.576.792.096.312.144.66.144 1.044v15.12c0 .504.036.912.108 1.224.096.312.228.552.396.72.192.144.432.252.72.324.312.048.684.072 1.116.072.456 0 .84.036 1.152.108.336.072.588.252.756.54.168.264.252.708.252 1.332 0 .672-.108 1.164-.324 1.476a1.229 1.229 0 0 1-.792.54c-.312.072-.66.108-1.044.108Zm-8.1-17.388 3.708.036 4.968-.144c.408 0 .768.048 1.08.144.336.072.6.264.792.576.192.288.288.768.288 1.44 0 .624-.096 1.092-.288 1.404-.192.312-.444.516-.756.612a4.834 4.834 0 0 1-1.08.108l-4.824-.072-3.996.036c-.6-.024-1.02-.192-1.26-.504-.216-.336-.324-.876-.324-1.62 0-.696.132-1.2.396-1.512.288-.336.72-.504 1.296-.504Zm15.644 17.388c-.648 0-1.128-.108-1.44-.324a1.229 1.229 0 0 1-.54-.792 5.336 5.336 0 0 1-.108-1.116V36.772c0-.432.036-.804.108-1.116.072-.336.252-.588.54-.756.312-.192.804-.288 1.476-.288.648 0 1.116.084 1.404.252.312.168.504.384.576.648.096.24.144.48.144.72l-.288.648c.12-.192.288-.42.504-.684.216-.288.504-.564.864-.828.36-.288.792-.516 1.296-.684.504-.192 1.104-.288 1.8-.288a4 4 0 0 1 .9.108c.336.048.66.132.972.252.336.096.636.228.9.396s.468.372.612.612c.144.216.216.468.216.756 0 .768-.192 1.416-.576 1.944-.384.528-.84.792-1.368.792-.36 0-.624-.036-.792-.108a1.861 1.861 0 0 1-.432-.252c-.096-.096-.252-.18-.468-.252-.192-.072-.504-.108-.936-.108-.36 0-.732.06-1.116.18-.36.12-.696.3-1.008.54-.312.24-.564.552-.756.936-.192.36-.288.78-.288 1.26V50.2c0 .408-.036.78-.108 1.116-.072.312-.264.564-.576.756-.312.192-.816.288-1.512.288Zm20.295.216c-1.56 0-2.928-.252-4.104-.756-1.152-.504-2.124-1.188-2.916-2.052a9.75 9.75 0 0 1-1.764-2.952 10.337 10.337 0 0 1-.576-3.42c0-1.728.396-3.264 1.188-4.608a8.485 8.485 0 0 1 3.276-3.168c1.416-.768 3.036-1.152 4.86-1.152 1.296 0 2.436.204 3.42.612.984.408 1.8.948 2.448 1.62a6.54 6.54 0 0 1 1.512 2.16c.36.792.54 1.56.54 2.304 0 1.272-.312 2.196-.936 2.772-.6.576-1.356.864-2.268.864h-9.504c.024.816.276 1.524.756 2.124a5.205 5.205 0 0 0 1.872 1.404 6.168 6.168 0 0 0 2.34.468c.6 0 1.128-.036 1.584-.108a9.85 9.85 0 0 0 1.224-.252c.336-.12.624-.24.864-.36.264-.12.504-.228.72-.324.216-.096.42-.156.612-.18.264-.024.528.036.792.18s.48.396.648.756c.144.24.24.468.288.684.072.192.108.384.108.576 0 .48-.288.936-.864 1.368-.576.408-1.392.744-2.448 1.008-1.032.288-2.256.432-3.672.432Zm-4.824-10.332h7.38c.408 0 .72-.06.936-.18.216-.144.324-.432.324-.864a2.34 2.34 0 0 0-.504-1.476c-.336-.456-.792-.804-1.368-1.044-.576-.264-1.248-.396-2.016-.396-.888 0-1.692.18-2.412.54-.72.336-1.296.804-1.728 1.404a3.504 3.504 0 0 0-.612 2.016Zm39.001 10.044c-.696 0-1.212-.132-1.548-.396-.336-.264-.504-.624-.504-1.08l.252-1.188c-.192.312-.516.684-.972 1.116-.456.408-1.056.78-1.8 1.116-.744.312-1.644.468-2.7.468a7.684 7.684 0 0 1-3.204-.684 9.01 9.01 0 0 1-2.628-1.944 10.59 10.59 0 0 1-1.8-2.844 9.218 9.218 0 0 1-.648-3.456c0-1.176.216-2.28.648-3.312a9.633 9.633 0 0 1 1.836-2.808 8.484 8.484 0 0 1 2.628-1.908 7.281 7.281 0 0 1 3.168-.72c.984 0 1.812.132 2.484.396.696.264 1.284.6 1.764 1.008.48.384.876.792 1.188 1.224l-.216-1.044c0-.528.168-.924.504-1.188.336-.288.864-.432 1.584-.432.672 0 1.152.108 1.44.324.288.192.468.468.54.828.072.336.108.72.108 1.152v13.176c0 .408-.036.78-.108 1.116-.072.336-.264.6-.576.792-.288.192-.768.288-1.44.288Zm-6.624-4.176c.816 0 1.548-.204 2.196-.612a4.47 4.47 0 0 0 1.548-1.656c.408-.72.612-1.512.612-2.376 0-.936-.204-1.752-.612-2.448a4.372 4.372 0 0 0-1.62-1.62c-.648-.408-1.38-.612-2.196-.612-.888 0-1.68.216-2.376.648a4.485 4.485 0 0 0-1.656 1.692c-.384.696-.576 1.488-.576 2.376 0 .864.204 1.644.612 2.34.408.696.96 1.248 1.656 1.656.72.408 1.524.612 2.412.612Zm32.701 4.536c-1.728 0-3.348-.324-4.86-.972a13.29 13.29 0 0 1-3.96-2.736 13.071 13.071 0 0 1-2.7-4.032c-.648-1.536-.972-3.18-.972-4.932 0-1.8.312-3.48.936-5.04.648-1.584 1.524-2.964 2.628-4.14a12.389 12.389 0 0 1 3.888-2.808c1.464-.672 3.036-1.008 4.716-1.008 1.752 0 3.372.336 4.86 1.008a11.954 11.954 0 0 1 3.96 2.736 13.16 13.16 0 0 1 2.664 4.104c.648 1.536.972 3.204.972 5.004 0 1.752-.312 3.408-.936 4.968a13.185 13.185 0 0 1-2.628 4.104 12.667 12.667 0 0 1-3.888 2.772c-1.44.648-3 .972-4.68.972Zm-.18-4.392a7.457 7.457 0 0 0 3.096-.648 7.82 7.82 0 0 0 2.52-1.8 8.225 8.225 0 0 0 1.728-2.664 8.926 8.926 0 0 0 .612-3.312c0-1.176-.216-2.268-.648-3.276a8.133 8.133 0 0 0-1.728-2.7 7.577 7.577 0 0 0-2.52-1.836c-.936-.432-1.956-.648-3.06-.648-1.08 0-2.1.216-3.06.648a7.968 7.968 0 0 0-2.556 1.836 8.44 8.44 0 0 0-1.692 2.7 8.829 8.829 0 0 0-.612 3.276c0 1.152.204 2.244.612 3.276a8.97 8.97 0 0 0 1.728 2.7 7.94 7.94 0 0 0 2.484 1.8c.96.432 1.992.648 3.096.648Zm17.12 4.068c-.648 0-1.128-.108-1.44-.324a1.377 1.377 0 0 1-.576-.792 5.149 5.149 0 0 1-.108-1.08v-20.88c0-.36.048-.696.144-1.008.096-.312.3-.564.612-.756.336-.192.828-.288 1.476-.288.72 0 1.212.084 1.476.252.288.144.552.36.792.648l12.024 16.812v-15.66c0-.36.048-.696.144-1.008.096-.312.3-.564.612-.756.312-.192.792-.288 1.44-.288.672 0 1.152.108 1.44.324.312.192.504.456.576.792.096.336.144.708.144 1.116v20.736c0 .384-.06.744-.18 1.08-.096.312-.312.564-.648.756-.312.216-.804.324-1.476.324-.528 0-.948-.048-1.26-.144-.288-.096-.552-.3-.792-.612l-12.204-16.776v15.372c0 .384-.048.744-.144 1.08-.072.312-.264.564-.576.756-.312.216-.804.324-1.476.324Zm35.111.18c-1.8 0-3.456-.312-4.968-.936a11.57 11.57 0 0 1-3.924-2.736c-1.104-1.176-1.956-2.556-2.556-4.14-.6-1.608-.9-3.384-.9-5.328 0-1.824.312-3.492.936-5.004.624-1.512 1.5-2.82 2.628-3.924a11.936 11.936 0 0 1 3.996-2.628c1.56-.624 3.264-.936 5.112-.936.768 0 1.56.072 2.376.216.816.12 1.608.324 2.376.612.768.264 1.44.6 2.016 1.008.456.288.84.588 1.152.9.336.288.516.624.54 1.008.024.216-.012.456-.108.72-.096.24-.24.492-.432.756-.264.408-.552.708-.864.9-.288.192-.576.288-.864.288-.168 0-.372-.06-.612-.18-.24-.144-.564-.336-.972-.576-.312-.216-.72-.42-1.224-.612a10.355 10.355 0 0 0-1.656-.468c-.6-.12-1.224-.18-1.872-.18-1.608 0-3.024.336-4.248 1.008a7.23 7.23 0 0 0-2.88 2.88c-.672 1.224-1.008 2.664-1.008 4.32 0 1.704.348 3.204 1.044 4.5.696 1.296 1.644 2.316 2.844 3.06 1.224.72 2.628 1.08 4.212 1.08.552 0 1.104-.036 1.656-.108.576-.072 1.128-.18 1.656-.324a8.595 8.595 0 0 0 1.512-.54v-5.688h-5.112c-.336 0-.648-.036-.936-.108-.264-.072-.48-.24-.648-.504-.144-.264-.216-.696-.216-1.296 0-.624.084-1.068.252-1.332.168-.264.384-.432.648-.504.288-.072.6-.108.936-.108h7.344c.624 0 1.08.108 1.368.324.288.216.48.492.576.828.096.312.144.672.144 1.08v8.388c0 .48-.24.972-.72 1.476-.456.504-1.104.972-1.944 1.404-.552.288-1.188.54-1.908.756a18.86 18.86 0 0 1-2.268.468c-.792.12-1.62.18-2.484.18Zm24.407-.18c-.648 0-1.128-.096-1.44-.288a1.229 1.229 0 0 1-.54-.792 5.149 5.149 0 0 1-.108-1.08V36.7c0-.384.036-.732.108-1.044.072-.312.264-.564.576-.756.312-.192.804-.288 1.476-.288.696 0 1.2.144 1.512.432.336.288.504.744.504 1.368l-.324 1.008c.12-.264.324-.552.612-.864a8.177 8.177 0 0 1 1.044-.936 5.871 5.871 0 0 1 1.44-.756 4.808 4.808 0 0 1 1.656-.288c.792 0 1.512.132 2.16.396.672.264 1.26.648 1.764 1.152a7.186 7.186 0 0 1 1.368 1.836 10.54 10.54 0 0 1 1.368-1.692 5.3 5.3 0 0 1 1.764-1.224c.672-.312 1.428-.468 2.268-.468 1.392 0 2.556.348 3.492 1.044.96.696 1.68 1.692 2.16 2.988.504 1.272.756 2.796.756 4.572v6.984c0 .408-.048.78-.144 1.116-.072.312-.264.564-.576.756-.288.192-.768.288-1.44.288-.672 0-1.164-.108-1.476-.324-.312-.192-.504-.444-.576-.756a5.336 5.336 0 0 1-.108-1.116v-6.984c0-.888-.108-1.656-.324-2.304-.216-.648-.54-1.152-.972-1.512-.408-.36-.948-.54-1.62-.54-.72 0-1.344.18-1.872.54-.504.336-.9.828-1.188 1.476-.288.648-.432 1.44-.432 2.376v7.02c0 .408-.06.792-.18 1.152-.12.336-.36.588-.72.756-.336.192-.828.264-1.476.216-.6-.024-1.044-.144-1.332-.36a1.415 1.415 0 0 1-.504-.792 7.377 7.377 0 0 1-.072-1.044v-6.984c0-.888-.108-1.656-.324-2.304-.216-.672-.54-1.176-.972-1.512-.408-.36-.96-.54-1.656-.54-.744 0-1.38.192-1.908.576-.504.384-.888.9-1.152 1.548-.264.648-.396 1.392-.396 2.232V50.2c0 .384-.048.744-.144 1.08a1.083 1.083 0 0 1-.576.756c-.288.192-.78.288-1.476.288Zm41.992-.036c-.696 0-1.212-.132-1.548-.396-.336-.264-.504-.624-.504-1.08l.252-1.188c-.192.312-.516.684-.972 1.116-.456.408-1.056.78-1.8 1.116-.744.312-1.644.468-2.7.468a7.684 7.684 0 0 1-3.204-.684 9.01 9.01 0 0 1-2.628-1.944 10.59 10.59 0 0 1-1.8-2.844 9.218 9.218 0 0 1-.648-3.456c0-1.176.216-2.28.648-3.312a9.633 9.633 0 0 1 1.836-2.808 8.484 8.484 0 0 1 2.628-1.908 7.281 7.281 0 0 1 3.168-.72c.984 0 1.812.132 2.484.396.696.264 1.284.6 1.764 1.008.48.384.876.792 1.188 1.224l-.216-1.044c0-.528.168-.924.504-1.188.336-.288.864-.432 1.584-.432.672 0 1.152.108 1.44.324.288.192.468.468.54.828.072.336.108.72.108 1.152v13.176c0 .408-.036.78-.108 1.116-.072.336-.264.6-.576.792-.288.192-.768.288-1.44.288Zm-6.624-4.176c.816 0 1.548-.204 2.196-.612a4.47 4.47 0 0 0 1.548-1.656c.408-.72.612-1.512.612-2.376 0-.936-.204-1.752-.612-2.448a4.372 4.372 0 0 0-1.62-1.62c-.648-.408-1.38-.612-2.196-.612-.888 0-1.68.216-2.376.648a4.485 4.485 0 0 0-1.656 1.692c-.384.696-.576 1.488-.576 2.376 0 .864.204 1.644.612 2.34.408.696.96 1.248 1.656 1.656.72.408 1.524.612 2.412.612Zm14.664 4.248c-.648 0-1.128-.108-1.44-.324-.312-.192-.504-.444-.576-.756a5.336 5.336 0 0 1-.108-1.116V36.772c0-.384.036-.732.108-1.044.096-.336.288-.6.576-.792.312-.192.804-.288 1.476-.288.672 0 1.152.096 1.44.288.312.192.504.456.576.792.072.336.108.708.108 1.116V50.2c0 .408-.036.78-.108 1.116-.072.312-.264.564-.576.756-.288.192-.78.288-1.476.288Zm0-21.204c-.696 0-1.212-.096-1.548-.288a1.489 1.489 0 0 1-.612-.864 6.068 6.068 0 0 1-.108-1.188c0-.456.036-.852.108-1.188.096-.336.312-.6.648-.792.336-.216.852-.324 1.548-.324.72 0 1.236.108 1.548.324.312.216.516.504.612.864.096.336.144.732.144 1.188 0 .408-.048.792-.144 1.152-.096.36-.3.636-.612.828-.312.192-.84.288-1.584.288Zm12.254 21.42a9.785 9.785 0 0 1-1.98-.216c-.696-.12-1.368-.3-2.016-.54a8.603 8.603 0 0 1-1.692-.9c-.456-.36-.744-.756-.864-1.188a1.411 1.411 0 0 1-.108-.684c.024-.24.096-.48.216-.72a3.1 3.1 0 0 1 .54-.792c.216-.264.432-.408.648-.432.24-.048.54.024.9.216.312.12.648.276 1.008.468l1.152.576c.408.192.816.348 1.224.468.432.12.852.18 1.26.18.888 0 1.596-.144 2.124-.432.528-.312.792-.744.792-1.296 0-.312-.084-.588-.252-.828a1.796 1.796 0 0 0-.684-.576 4.074 4.074 0 0 0-.972-.432 7.691 7.691 0 0 0-1.188-.36c-.408-.12-.84-.252-1.296-.396-.6-.168-1.2-.372-1.8-.612a6.35 6.35 0 0 1-1.62-.936 4.463 4.463 0 0 1-1.116-1.44c-.288-.576-.432-1.296-.432-2.16 0-1.08.252-1.992.756-2.736.528-.768 1.284-1.356 2.268-1.764.984-.408 2.172-.612 3.564-.612.48 0 .936.036 1.368.108.456.072.888.18 1.296.324.432.12.84.276 1.224.468a8.92 8.92 0 0 1 1.152.648c.6.336.912.732.936 1.188.024.432-.144.9-.504 1.404-.264.336-.528.576-.792.72a.997.997 0 0 1-.828 0 66.168 66.168 0 0 0-1.26-.612 8.79 8.79 0 0 0-1.368-.612 4.132 4.132 0 0 0-1.44-.252c-.48 0-.912.072-1.296.216-.384.144-.672.348-.864.612a1.548 1.548 0 0 0-.288.936c0 .336.096.612.288.828.192.216.444.396.756.54.312.144.684.276 1.116.396.432.096.888.192 1.368.288.672.144 1.356.324 2.052.54a7.34 7.34 0 0 1 1.908.9c.6.384 1.08.9 1.44 1.548.36.624.54 1.44.54 2.448 0 1.752-.648 3.108-1.944 4.068-1.272.96-3.036 1.44-5.292 1.44Zm28.406-.468c-1.176 0-2.232-.216-3.168-.648a7.085 7.085 0 0 1-2.34-1.872 9.14 9.14 0 0 1-1.44-2.808c-.312-1.056-.468-2.196-.468-3.42.024-1.224.204-2.364.54-3.42.336-1.08.816-2.016 1.44-2.808a7.085 7.085 0 0 1 2.34-1.872c.912-.456 1.944-.684 3.096-.684 1.104 0 2.136.228 3.096.684a8.07 8.07 0 0 1 2.592 1.908 8.962 8.962 0 0 1 1.8 2.844c.432 1.056.648 2.196.648 3.42 0 1.248-.216 2.4-.648 3.456a8.96 8.96 0 0 1-1.764 2.772 8.117 8.117 0 0 1-2.592 1.8 7.706 7.706 0 0 1-3.132.648Zm-7.2 7.488c-.648 0-1.128-.096-1.44-.288-.312-.192-.504-.444-.576-.756a4.834 4.834 0 0 1-.108-1.08v-20.7c0-.408.036-.768.108-1.08.072-.312.252-.564.54-.756.312-.216.792-.324 1.44-.324.624 0 1.116.096 1.476.288.36.192.6.516.72.972v21.564a3.06 3.06 0 0 1-.108 1.08c-.072.336-.264.6-.576.792-.312.192-.804.288-1.476.288Zm6.624-11.52c.84 0 1.596-.192 2.268-.576.672-.408 1.2-.96 1.584-1.656.408-.72.612-1.524.612-2.412 0-.912-.204-1.716-.612-2.412a4.115 4.115 0 0 0-1.584-1.62c-.672-.408-1.428-.612-2.268-.612-.816 0-1.56.204-2.232.612a4.659 4.659 0 0 0-1.62 1.656c-.384.672-.576 1.464-.576 2.376 0 .888.192 1.692.576 2.412a4.659 4.659 0 0 0 1.62 1.656 4.419 4.419 0 0 0 2.232.576Zm13.877 4.284c-.648 0-1.128-.108-1.44-.324a1.229 1.229 0 0 1-.54-.792 5.336 5.336 0 0 1-.108-1.116V36.772c0-.432.036-.804.108-1.116.072-.336.252-.588.54-.756.312-.192.804-.288 1.476-.288.648 0 1.116.084 1.404.252.312.168.504.384.576.648.096.24.144.48.144.72l-.288.648c.12-.192.288-.42.504-.684.216-.288.504-.564.864-.828.36-.288.792-.516 1.296-.684.504-.192 1.104-.288 1.8-.288a4 4 0 0 1 .9.108c.336.048.66.132.972.252.336.096.636.228.9.396s.468.372.612.612c.144.216.216.468.216.756 0 .768-.192 1.416-.576 1.944-.384.528-.84.792-1.368.792-.36 0-.624-.036-.792-.108a1.861 1.861 0 0 1-.432-.252c-.096-.096-.252-.18-.468-.252-.192-.072-.504-.108-.936-.108-.36 0-.732.06-1.116.18-.36.12-.696.3-1.008.54-.312.24-.564.552-.756.936-.192.36-.288.78-.288 1.26V50.2c0 .408-.036.78-.108 1.116-.072.312-.264.564-.576.756-.312.192-.816.288-1.512.288Zm20.007.216a9.213 9.213 0 0 1-3.384-.648 10.205 10.205 0 0 1-2.952-1.908 9.645 9.645 0 0 1-2.088-2.88c-.504-1.104-.756-2.316-.756-3.636 0-1.272.24-2.46.72-3.564a9.366 9.366 0 0 1 1.98-2.916c.84-.84 1.8-1.488 2.88-1.944a8.752 8.752 0 0 1 3.528-.72c1.68 0 3.204.408 4.572 1.224a9.02 9.02 0 0 1 3.276 3.24c.816 1.368 1.224 2.916 1.224 4.644 0 1.368-.252 2.616-.756 3.744a9.142 9.142 0 0 1-2.052 2.88 9.508 9.508 0 0 1-2.916 1.836 8.574 8.574 0 0 1-3.276.648Zm-.072-4.248c.792 0 1.548-.192 2.268-.576a4.78 4.78 0 0 0 1.8-1.728c.48-.744.72-1.62.72-2.628 0-.936-.216-1.764-.648-2.484a4.408 4.408 0 0 0-1.692-1.692c-.72-.408-1.548-.612-2.484-.612-.888 0-1.692.216-2.412.648a4.594 4.594 0 0 0-1.728 1.728c-.408.72-.612 1.536-.612 2.448 0 1.008.228 1.884.684 2.628a4.958 4.958 0 0 0 1.764 1.692 5.035 5.035 0 0 0 2.34.576Zm-1.152-15.552c-.384.072-.708 0-.972-.216-.24-.216-.444-.6-.612-1.152-.216-.672-.264-1.176-.144-1.512.144-.36.516-.636 1.116-.828l6.048-1.908c.384-.072.696.012.936.252.264.216.468.6.612 1.152.24.648.276 1.152.108 1.512-.144.336-.504.6-1.08.792l-6.012 1.908Zm26.823 2.34c.456.408.744.768.864 1.08.144.312.144.636 0 .972-.12.312-.384.696-.792 1.152l-11.412 13.212c-.408.432-.768.72-1.08.864a1.077 1.077 0 0 1-.936.072c-.288-.12-.636-.348-1.044-.684-.408-.408-.684-.756-.828-1.044a1.147 1.147 0 0 1 0-.972c.168-.336.444-.72.828-1.152l11.412-13.212c.6-.648 1.092-.996 1.476-1.044.408-.048.912.204 1.512.756Zm-14.364 0c.408-.36.756-.588 1.044-.684.312-.096.612-.06.9.108.312.144.66.432 1.044.864l11.412 13.212c.408.432.684.816.828 1.152.144.336.156.66.036.972-.12.288-.408.636-.864 1.044-.408.36-.768.588-1.08.684-.288.12-.588.096-.9-.072-.288-.144-.648-.432-1.08-.864L438.846 38.32c-.384-.432-.648-.816-.792-1.152a1.147 1.147 0 0 1 0-.972c.144-.336.432-.696.864-1.08ZM459.43 52.36c-.648 0-1.128-.108-1.44-.324-.312-.192-.504-.444-.576-.756a5.336 5.336 0 0 1-.108-1.116V36.772c0-.384.036-.732.108-1.044.096-.336.288-.6.576-.792.312-.192.804-.288 1.476-.288.672 0 1.152.096 1.44.288.312.192.504.456.576.792.072.336.108.708.108 1.116V50.2c0 .408-.036.78-.108 1.116-.072.312-.264.564-.576.756-.288.192-.78.288-1.476.288Zm0-21.204c-.696 0-1.212-.096-1.548-.288a1.489 1.489 0 0 1-.612-.864 6.068 6.068 0 0 1-.108-1.188c0-.456.036-.852.108-1.188.096-.336.312-.6.648-.792.336-.216.852-.324 1.548-.324.72 0 1.236.108 1.548.324.312.216.516.504.612.864.096.336.144.732.144 1.188 0 .408-.048.792-.144 1.152-.096.36-.3.636-.612.828-.312.192-.84.288-1.584.288Zm8.186 21.168c-.648 0-1.128-.096-1.44-.288a1.229 1.229 0 0 1-.54-.792 5.149 5.149 0 0 1-.108-1.08V36.7c0-.384.036-.732.108-1.044.072-.312.264-.564.576-.756.312-.192.804-.288 1.476-.288.696 0 1.2.144 1.512.432.336.288.504.744.504 1.368l-.324 1.008c.12-.264.324-.552.612-.864a8.177 8.177 0 0 1 1.044-.936 5.871 5.871 0 0 1 1.44-.756 4.808 4.808 0 0 1 1.656-.288c.792 0 1.512.132 2.16.396.672.264 1.26.648 1.764 1.152a7.186 7.186 0 0 1 1.368 1.836 10.54 10.54 0 0 1 1.368-1.692 5.3 5.3 0 0 1 1.764-1.224c.672-.312 1.428-.468 2.268-.468 1.392 0 2.556.348 3.492 1.044.96.696 1.68 1.692 2.16 2.988.504 1.272.756 2.796.756 4.572v6.984c0 .408-.048.78-.144 1.116-.072.312-.264.564-.576.756-.288.192-.768.288-1.44.288-.672 0-1.164-.108-1.476-.324-.312-.192-.504-.444-.576-.756a5.336 5.336 0 0 1-.108-1.116v-6.984c0-.888-.108-1.656-.324-2.304-.216-.648-.54-1.152-.972-1.512-.408-.36-.948-.54-1.62-.54-.72 0-1.344.18-1.872.54-.504.336-.9.828-1.188 1.476-.288.648-.432 1.44-.432 2.376v7.02c0 .408-.06.792-.18 1.152-.12.336-.36.588-.72.756-.336.192-.828.264-1.476.216-.6-.024-1.044-.144-1.332-.36a1.415 1.415 0 0 1-.504-.792 7.377 7.377 0 0 1-.072-1.044v-6.984c0-.888-.108-1.656-.324-2.304-.216-.672-.54-1.176-.972-1.512-.408-.36-.96-.54-1.656-.54-.744 0-1.38.192-1.908.576-.504.384-.888.9-1.152 1.548-.264.648-.396 1.392-.396 2.232V50.2c0 .384-.048.744-.144 1.08a1.083 1.083 0 0 1-.576.756c-.288.192-.78.288-1.476.288Zm41.993-.036c-.696 0-1.212-.132-1.548-.396-.336-.264-.504-.624-.504-1.08l.252-1.188c-.192.312-.516.684-.972 1.116-.456.408-1.056.78-1.8 1.116-.744.312-1.644.468-2.7.468a7.684 7.684 0 0 1-3.204-.684 9.01 9.01 0 0 1-2.628-1.944 10.59 10.59 0 0 1-1.8-2.844 9.218 9.218 0 0 1-.648-3.456c0-1.176.216-2.28.648-3.312a9.633 9.633 0 0 1 1.836-2.808 8.484 8.484 0 0 1 2.628-1.908 7.281 7.281 0 0 1 3.168-.72c.984 0 1.812.132 2.484.396.696.264 1.284.6 1.764 1.008.48.384.876.792 1.188 1.224l-.216-1.044c0-.528.168-.924.504-1.188.336-.288.864-.432 1.584-.432.672 0 1.152.108 1.44.324.288.192.468.468.54.828.072.336.108.72.108 1.152v13.176c0 .408-.036.78-.108 1.116-.072.336-.264.6-.576.792-.288.192-.768.288-1.44.288Zm-6.624-4.176c.816 0 1.548-.204 2.196-.612a4.47 4.47 0 0 0 1.548-1.656c.408-.72.612-1.512.612-2.376 0-.936-.204-1.752-.612-2.448a4.372 4.372 0 0 0-1.62-1.62c-.648-.408-1.38-.612-2.196-.612-.888 0-1.68.216-2.376.648a4.485 4.485 0 0 0-1.656 1.692c-.384.696-.576 1.488-.576 2.376 0 .864.204 1.644.612 2.34.408.696.96 1.248 1.656 1.656.72.408 1.524.612 2.412.612Zm28.921 4.212a7.36 7.36 0 0 1-3.132-.684 8.33 8.33 0 0 1-2.592-1.872 9.308 9.308 0 0 1-1.764-2.844 9.595 9.595 0 0 1-.648-3.528c0-1.2.216-2.328.648-3.384a8.857 8.857 0 0 1 1.764-2.808 8.484 8.484 0 0 1 2.628-1.908 7.279 7.279 0 0 1 3.096-.684c1.152 0 2.184.228 3.096.684a6.558 6.558 0 0 1 2.304 1.908c.648.792 1.14 1.728 1.476 2.808.336 1.056.516 2.196.54 3.42 0 1.224-.168 2.376-.504 3.456a8.201 8.201 0 0 1-1.44 2.808 6.824 6.824 0 0 1-2.34 1.944c-.912.456-1.956.684-3.132.684Zm.576-4.212c.84 0 1.584-.192 2.232-.576.672-.408 1.2-.96 1.584-1.656.408-.696.612-1.488.612-2.376 0-.912-.204-1.716-.612-2.412a4.375 4.375 0 0 0-1.584-1.656c-.648-.408-1.392-.612-2.232-.612-.84 0-1.596.204-2.268.612-.672.384-1.212.936-1.62 1.656-.384.696-.576 1.5-.576 2.412 0 .888.192 1.68.576 2.376a4.659 4.659 0 0 0 1.62 1.656 4.619 4.619 0 0 0 2.268.576Zm6.66 4.212c-.672 0-1.164-.108-1.476-.324-.312-.24-.516-.612-.612-1.116V28.708c0-.408.024-.768.072-1.08.072-.336.252-.6.54-.792.312-.216.792-.324 1.44-.324.696 0 1.188.096 1.476.288.288.192.468.456.54.792.096.312.144.672.144 1.08v21.456c0 .408-.036.78-.108 1.116-.072.336-.264.6-.576.792-.288.192-.768.288-1.44.288Zm14.407.252c-1.56 0-2.928-.252-4.104-.756-1.152-.504-2.124-1.188-2.916-2.052a9.75 9.75 0 0 1-1.764-2.952 10.337 10.337 0 0 1-.576-3.42c0-1.728.396-3.264 1.188-4.608a8.485 8.485 0 0 1 3.276-3.168c1.416-.768 3.036-1.152 4.86-1.152 1.296 0 2.436.204 3.42.612.984.408 1.8.948 2.448 1.62a6.54 6.54 0 0 1 1.512 2.16c.36.792.54 1.56.54 2.304 0 1.272-.312 2.196-.936 2.772-.6.576-1.356.864-2.268.864h-9.504c.024.816.276 1.524.756 2.124a5.205 5.205 0 0 0 1.872 1.404 6.168 6.168 0 0 0 2.34.468c.6 0 1.128-.036 1.584-.108a9.85 9.85 0 0 0 1.224-.252c.336-.12.624-.24.864-.36.264-.12.504-.228.72-.324.216-.096.42-.156.612-.18.264-.024.528.036.792.18s.48.396.648.756c.144.24.24.468.288.684.072.192.108.384.108.576 0 .48-.288.936-.864 1.368-.576.408-1.392.744-2.448 1.008-1.032.288-2.256.432-3.672.432Zm-4.824-10.332h7.38c.408 0 .72-.06.936-.18.216-.144.324-.432.324-.864a2.34 2.34 0 0 0-.504-1.476c-.336-.456-.792-.804-1.368-1.044-.576-.264-1.248-.396-2.016-.396-.888 0-1.692.18-2.412.54-.72.336-1.296.804-1.728 1.404a3.504 3.504 0 0 0-.612 2.016Zm32.62 10.188c-.504 0-.924-.084-1.26-.252-.336-.168-.6-.444-.792-.828l-6.552-13.716c-.36-.72-.456-1.296-.288-1.728.168-.432.6-.816 1.296-1.152.72-.36 1.296-.48 1.728-.36.432.12.816.564 1.152 1.332l4.716 11.052 4.644-10.836c.336-.792.72-1.284 1.152-1.476.432-.216 1.056-.12 1.872.288.816.408 1.248.864 1.296 1.368.048.48-.084 1.032-.396 1.656l-6.516 13.572c-.192.36-.456.624-.792.792-.336.192-.756.288-1.26.288Zm18.815.144a9.213 9.213 0 0 1-3.384-.648 10.205 10.205 0 0 1-2.952-1.908 9.645 9.645 0 0 1-2.088-2.88c-.504-1.104-.756-2.316-.756-3.636 0-1.272.24-2.46.72-3.564a9.366 9.366 0 0 1 1.98-2.916c.84-.84 1.8-1.488 2.88-1.944a8.752 8.752 0 0 1 3.528-.72c1.68 0 3.204.408 4.572 1.224a9.02 9.02 0 0 1 3.276 3.24c.816 1.368 1.224 2.916 1.224 4.644 0 1.368-.252 2.616-.756 3.744a9.142 9.142 0 0 1-2.052 2.88 9.508 9.508 0 0 1-2.916 1.836 8.574 8.574 0 0 1-3.276.648Zm-.072-4.248c.792 0 1.548-.192 2.268-.576a4.78 4.78 0 0 0 1.8-1.728c.48-.744.72-1.62.72-2.628 0-.936-.216-1.764-.648-2.484a4.408 4.408 0 0 0-1.692-1.692c-.72-.408-1.548-.612-2.484-.612-.888 0-1.692.216-2.412.648a4.594 4.594 0 0 0-1.728 1.728c-.408.72-.612 1.536-.612 2.448 0 1.008.228 1.884.684 2.628a4.958 4.958 0 0 0 1.764 1.692 5.035 5.035 0 0 0 2.34.576Zm20.469 4.104c-1.152 0-2.28-.192-3.384-.576a9.75 9.75 0 0 1-2.952-1.764 8.768 8.768 0 0 1-2.088-2.808c-.504-1.128-.756-2.4-.756-3.816s.252-2.676.756-3.78a8.768 8.768 0 0 1 2.088-2.808 9.3 9.3 0 0 1 2.916-1.764 9.398 9.398 0 0 1 3.348-.612c.84 0 1.632.12 2.376.36.768.24 1.428.528 1.98.864.552.336.948.672 1.188 1.008.312.288.576.564.792.828.216.264.288.588.216.972-.072.24-.18.468-.324.684a5.813 5.813 0 0 1-.54.612c-.576.648-1.14.888-1.692.72a18.726 18.726 0 0 1-.936-.54 12.634 12.634 0 0 0-.972-.54 5.167 5.167 0 0 0-.972-.468 3.299 3.299 0 0 0-1.116-.18c-.912 0-1.728.204-2.448.612a4.294 4.294 0 0 0-1.656 1.62c-.384.696-.576 1.5-.576 2.412 0 .912.192 1.728.576 2.448.408.696.96 1.248 1.656 1.656.696.384 1.488.576 2.376.576.432 0 .84-.048 1.224-.144.408-.12.768-.264 1.08-.432a4.13 4.13 0 0 0 .756-.576c.264-.168.504-.324.72-.468.216-.144.444-.216.684-.216.288 0 .564.108.828.324.288.192.6.504.936.936.312.36.48.708.504 1.044.048.336-.024.66-.216.972-.168.312-.456.6-.864.864-.288.288-.72.588-1.296.9-.552.288-1.2.54-1.944.756a7.85 7.85 0 0 1-2.268.324Zm17.965.144c-1.56 0-2.928-.252-4.104-.756-1.152-.504-2.124-1.188-2.916-2.052a9.75 9.75 0 0 1-1.764-2.952 10.337 10.337 0 0 1-.576-3.42c0-1.728.396-3.264 1.188-4.608a8.485 8.485 0 0 1 3.276-3.168c1.416-.768 3.036-1.152 4.86-1.152 1.296 0 2.436.204 3.42.612.984.408 1.8.948 2.448 1.62a6.54 6.54 0 0 1 1.512 2.16c.36.792.54 1.56.54 2.304 0 1.272-.312 2.196-.936 2.772-.6.576-1.356.864-2.268.864h-9.504c.024.816.276 1.524.756 2.124a5.205 5.205 0 0 0 1.872 1.404 6.168 6.168 0 0 0 2.34.468c.6 0 1.128-.036 1.584-.108a9.85 9.85 0 0 0 1.224-.252c.336-.12.624-.24.864-.36.264-.12.504-.228.72-.324.216-.096.42-.156.612-.18.264-.024.528.036.792.18s.48.396.648.756c.144.24.24.468.288.684.072.192.108.384.108.576 0 .48-.288.936-.864 1.368-.576.408-1.392.744-2.448 1.008-1.032.288-2.256.432-3.672.432Zm-4.824-10.332h7.38c.408 0 .72-.06.936-.18.216-.144.324-.432.324-.864a2.34 2.34 0 0 0-.504-1.476c-.336-.456-.792-.804-1.368-1.044-.576-.264-1.248-.396-2.016-.396-.888 0-1.692.18-2.412.54-.72.336-1.296.804-1.728 1.404a3.504 3.504 0 0 0-.612 2.016Zm4.068-15.12c.144 0 .264.012.36.036.12.024.216.06.288.108l4.104 1.692c.6.216.96.528 1.08.936.144.408.072.888-.216 1.44-.264.504-.552.876-.864 1.116-.288.216-.588.252-.9.108l-3.852-1.764-3.852 1.728c-.336.144-.66.096-.972-.144-.288-.24-.564-.6-.828-1.08-.288-.552-.372-1.02-.252-1.404.144-.408.504-.72 1.08-.936l4.14-1.692a.803.803 0 0 1 .288-.108c.12-.024.252-.036.396-.036Z" fill="#fff"/></g><g filter="url(#b)" fill="#fff"><path d="M677.5 14.583a18.332 18.332 0 0 0-18.333 18.15c0 12.559 16.156 26.538 16.843 27.134a2.293 2.293 0 0 0 2.98 0c.802-.596 16.843-14.575 16.843-27.134a18.332 18.332 0 0 0-18.333-18.15Zm0 40.448c-3.827-3.643-13.75-13.75-13.75-22.298a13.752 13.752 0 0 1 13.75-13.75 13.75 13.75 0 0 1 13.75 13.75c0 8.48-9.923 18.655-13.75 22.298Z"/><path d="M677.5 23.75a8.02 8.02 0 1 0 0 16.042 8.02 8.02 0 0 0 0-16.042Zm0 11.458a3.437 3.437 0 1 1 0-6.874 3.437 3.437 0 0 1 0 6.874Z"/></g><defs><filter id="a" x="26.304" y="26.512" width="624.102" height="41.084" filterUnits="userSpaceOnUse" color-interpolation-filters="sRGB"><feFlood flood-opacity="0" result="BackgroundImageFix"/><feColorMatrix in="SourceAlpha" values="0 0 0 0 0 0 0 0 0 0 0 0 0 0 0 0 0 0 127 0" result="hardAlpha"/><feOffset dy="4"/><feGaussianBlur stdDeviation="2"/><feComposite in2="hardAlpha" operator="out"/><feColorMatrix values="0 0 0 0 0 0 0 0 0 0 0 0 0 0 0 0 0 0 0.25 0"/><feBlend in2="BackgroundImageFix" result="effect1_dropShadow_23_372"/><feBlend in="SourceGraphic" in2="effect1_dropShadow_23_372" result="shape"/></filter><filter id="b" x="655.167" y="14.583" width="44.667" height="53.834" filterUnits="userSpaceOnUse" color-interpolation-filters="sRGB"><feFlood flood-opacity="0" result="BackgroundImageFix"/><feColorMatrix in="SourceAlpha" values="0 0 0 0 0 0 0 0 0 0 0 0 0 0 0 0 0 0 127 0" result="hardAlpha"/><feOffset dy="4"/><feGaussianBlur stdDeviation="2"/><feComposite in2="hardAlpha" operator="out"/><feColorMatrix values="0 0 0 0 0 0 0 0 0 0 0 0 0 0 0 0 0 0 0.25 0"/><feBlend in2="BackgroundImageFix" result="effect1_dropShadow_23_372"/><feBlend in="SourceGraphic" in2="effect1_dropShadow_23_372" result="shape"/></filter></defs></svg>