<svg width="74" height="74" viewBox="0 0 74 74" fill="none" xmlns="http://www.w3.org/2000/svg">
<circle cx="37" cy="37" r="37" fill="#AC65E4"/>
<path d="M14.1875 40.1406H51.9913L40.4206 53.8422C40.1527 54.16 39.9509 54.5267 39.8268 54.9213C39.7026 55.316 39.6585 55.7309 39.697 56.1424C39.7747 56.9734 40.1841 57.7399 40.835 58.2733C41.4859 58.8067 42.3251 59.0633 43.168 58.9867C44.0109 58.9101 44.7883 58.5065 45.3294 57.8647L61.2669 39.0093C61.3741 38.8593 61.47 38.7018 61.5538 38.5379C61.5538 38.3808 61.7131 38.2865 61.7769 38.1294C61.9214 37.769 61.997 37.3855 62 36.998C61.997 36.6106 61.9214 36.227 61.7769 35.8667C61.7769 35.7096 61.6175 35.6153 61.5538 35.4582C61.47 35.2943 61.3741 35.1368 61.2669 34.9868L45.3294 16.1313C45.0297 15.7766 44.6544 15.4913 44.2302 15.2958C43.806 15.1002 43.3433 14.9993 42.875 15C42.1302 14.9986 41.4085 15.2543 40.835 15.7228C40.5122 15.9866 40.2454 16.3106 40.0499 16.6762C39.8543 17.0419 39.7338 17.442 39.6954 17.8536C39.6569 18.2652 39.7011 18.6802 39.8256 19.0749C39.95 19.4696 40.1522 19.8363 40.4206 20.1538L51.9913 33.8555H14.1875C13.3421 33.8555 12.5314 34.1866 11.9336 34.7759C11.3358 35.3652 11 36.1646 11 36.998C11 37.8315 11.3358 38.6308 11.9336 39.2202C12.5314 39.8095 13.3421 40.1406 14.1875 40.1406Z" fill="white"/>
</svg>
