<svg width="43" height="34" viewBox="0 0 43 34" fill="none" xmlns="http://www.w3.org/2000/svg">
<path d="M36.55 0H6.45C4.73935 0 3.09877 0.67165 1.88916 1.86719C0.679552 3.06274 0 4.68425 0 6.375V27.625C0 29.3158 0.679552 30.9373 1.88916 32.1328C3.09877 33.3284 4.73935 34 6.45 34H36.55C38.2606 34 39.9012 33.3284 41.1108 32.1328C42.3204 30.9373 43 29.3158 43 27.625V6.375C43 4.68425 42.3204 3.06274 41.1108 1.86719C39.9012 0.67165 38.2606 0 36.55 0ZM35.1095 4.25L21.5 14.3438L7.8905 4.25H35.1095ZM36.55 29.75H6.45C5.87978 29.75 5.33292 29.5261 4.92972 29.1276C4.52652 28.7291 4.3 28.1886 4.3 27.625V6.90625L20.21 18.7C20.5822 18.9759 21.0348 19.125 21.5 19.125C21.9652 19.125 22.4178 18.9759 22.79 18.7L38.7 6.90625V27.625C38.7 28.1886 38.4735 28.7291 38.0703 29.1276C37.6671 29.5261 37.1202 29.75 36.55 29.75Z" fill="#231F20"/>
</svg>
