<svg width="53" height="53" viewBox="0 0 53 53" fill="none" xmlns="http://www.w3.org/2000/svg">
<path d="M52.1293 47.9496L42.1214 37.9711C45.3504 33.8574 47.1024 28.7776 47.0959 23.548C47.0959 18.8906 45.7149 14.3379 43.1274 10.4654C40.5399 6.59298 36.8622 3.57478 32.5594 1.79249C28.2566 0.0102028 23.5219 -0.456125 18.954 0.452478C14.3861 1.36108 10.1903 3.60381 6.89705 6.89705C3.60381 10.1903 1.36108 14.3861 0.452478 18.954C-0.456125 23.5219 0.0102028 28.2566 1.79249 32.5594C3.57478 36.8622 6.59298 40.5399 10.4654 43.1274C14.3379 45.7149 18.8906 47.0959 23.548 47.0959C28.7776 47.1024 33.8574 45.3504 37.9711 42.1214L47.9496 52.1293C48.2232 52.4052 48.5487 52.6242 48.9074 52.7736C49.2661 52.9231 49.6509 53 50.0394 53C50.428 53 50.8127 52.9231 51.1714 52.7736C51.5301 52.6242 51.8557 52.4052 52.1293 52.1293C52.4052 51.8557 52.6242 51.5301 52.7736 51.1714C52.9231 50.8127 53 50.428 53 50.0394C53 49.6509 52.9231 49.2661 52.7736 48.9074C52.6242 48.5487 52.4052 48.2232 52.1293 47.9496ZM5.887 23.548C5.887 20.055 6.9228 16.6404 8.86341 13.7361C10.804 10.8317 13.5623 8.56808 16.7894 7.23136C20.0165 5.89465 23.5676 5.5449 26.9935 6.22635C30.4194 6.9078 33.5662 8.58985 36.0362 11.0598C38.5061 13.5297 40.1881 16.6766 40.8696 20.1025C41.5511 23.5284 41.2013 27.0794 39.8646 30.3065C38.5279 33.5337 36.2642 36.2919 33.3599 38.2325C30.4556 40.1732 27.041 41.2089 23.548 41.2089C18.864 41.2089 14.3719 39.3482 11.0598 36.0362C7.74771 32.7241 5.887 28.232 5.887 23.548Z" fill="#231F20"/>
</svg>
