<svg width="40" height="40" viewBox="0 0 40 40" fill="none" xmlns="http://www.w3.org/2000/svg">
<path d="M30.7385 39.9996C22.5894 39.9891 14.7771 36.7407 9.01477 30.967C3.25247 25.1932 0.0105627 17.3654 0 9.20009C0 6.76014 0.967348 4.42012 2.68924 2.69481C4.41113 0.969498 6.74651 0.000228586 9.18163 0.000228586C9.69728 -0.00370696 10.2121 0.0431846 10.7186 0.140226C11.2082 0.212826 11.6896 0.333403 12.1557 0.500221C12.4835 0.615478 12.7757 0.814483 13.0032 1.07756C13.2308 1.34063 13.3858 1.65866 13.4531 2.0002L16.1876 14C16.2613 14.3257 16.2525 14.6648 16.1618 14.9862C16.0711 15.3076 15.9016 15.6011 15.6687 15.84C15.4092 16.12 15.3892 16.14 12.9341 17.42C14.9002 21.7416 18.3497 25.2122 22.6547 27.1998C23.9521 24.7199 23.972 24.6999 24.2515 24.4399C24.4899 24.2065 24.7829 24.0366 25.1036 23.9457C25.4244 23.8549 25.7627 23.846 26.0878 23.9199L38.0639 26.6598C38.3938 26.7365 38.6989 26.8961 38.9503 27.1235C39.2017 27.351 39.3912 27.6388 39.501 27.9598C39.6695 28.4345 39.7963 28.923 39.8802 29.4198C39.9606 29.9224 40.0006 30.4307 40 30.9398C39.9632 33.3693 38.9686 35.6856 37.2335 37.383C35.4983 39.0804 33.1634 40.021 30.7385 39.9996Z" fill="#231F20"/>
</svg>
