<svg width="729" height="97" viewBox="0 0 729 97" fill="none" xmlns="http://www.w3.org/2000/svg">
<rect y="18" width="729" height="79" rx="25" fill="#8034BB"/>
<rect width="729" height="79" rx="25" fill="#AC65E4"/>
<g filter="url(#filter0_d_23_372)">
<path d="M32.464 52.36C31.792 52.36 31.3 52.252 30.988 52.036C30.676 51.844 30.484 51.58 30.412 51.244C30.34 50.908 30.304 50.536 30.304 50.128V29.356C30.304 28.54 30.46 27.976 30.772 27.664C31.108 27.352 31.708 27.196 32.572 27.196H46.612C47.02 27.196 47.38 27.244 47.692 27.34C48.028 27.412 48.292 27.604 48.484 27.916C48.676 28.204 48.772 28.696 48.772 29.392C48.772 30.064 48.664 30.556 48.448 30.868C48.256 31.18 47.992 31.372 47.656 31.444C47.344 31.516 46.984 31.552 46.576 31.552H34.66V37.6H42.868C43.276 37.6 43.624 37.648 43.912 37.744C44.2 37.816 44.428 37.984 44.596 38.248C44.764 38.512 44.848 38.956 44.848 39.58C44.848 40.18 44.764 40.624 44.596 40.912C44.428 41.176 44.188 41.344 43.876 41.416C43.564 41.464 43.204 41.488 42.796 41.488H34.66V47.968H46.612C47.02 47.968 47.38 48.016 47.692 48.112C48.028 48.184 48.292 48.376 48.484 48.688C48.676 49 48.772 49.492 48.772 50.164C48.772 50.836 48.664 51.328 48.448 51.64C48.256 51.952 47.992 52.144 47.656 52.216C47.344 52.312 46.984 52.36 46.576 52.36H32.464ZM54.2148 52.324C53.5668 52.324 53.0868 52.216 52.7748 52C52.4868 51.808 52.3068 51.556 52.2348 51.244C52.1628 50.908 52.1268 50.536 52.1268 50.128V36.664C52.1268 36.28 52.1628 35.932 52.2348 35.62C52.3068 35.308 52.4988 35.068 52.8108 34.9C53.1228 34.708 53.6028 34.612 54.2508 34.612C54.8268 34.612 55.2588 34.684 55.5468 34.828C55.8348 34.972 56.0268 35.152 56.1228 35.368C56.2188 35.584 56.2668 35.8 56.2668 36.016C56.2908 36.232 56.3148 36.4 56.3388 36.52L56.1948 37.672C56.3388 37.288 56.5788 36.916 56.9148 36.556C57.2508 36.196 57.6588 35.872 58.1388 35.584C58.6188 35.272 59.1348 35.032 59.6868 34.864C60.2628 34.672 60.8508 34.576 61.4508 34.576C62.5788 34.576 63.5868 34.78 64.4748 35.188C65.3628 35.596 66.1188 36.172 66.7428 36.916C67.3908 37.66 67.8828 38.548 68.2188 39.58C68.5547 40.588 68.7227 41.728 68.7227 43V50.164C68.7227 50.572 68.6748 50.944 68.5788 51.28C68.5068 51.592 68.3268 51.844 68.0388 52.036C67.7508 52.228 67.2588 52.324 66.5628 52.324C65.8908 52.324 65.3988 52.216 65.0868 52C64.7748 51.808 64.5828 51.556 64.5108 51.244C64.4388 50.908 64.4028 50.536 64.4028 50.128V42.964C64.4028 42.1 64.2468 41.356 63.9348 40.732C63.6468 40.108 63.2148 39.628 62.6388 39.292C62.0868 38.956 61.3788 38.788 60.5148 38.788C59.6748 38.788 58.9428 38.968 58.3188 39.328C57.6948 39.664 57.2148 40.144 56.8788 40.768C56.5428 41.392 56.3748 42.124 56.3748 42.964V50.164C56.3748 50.572 56.3388 50.944 56.2668 51.28C56.1948 51.592 56.0028 51.844 55.6908 52.036C55.4028 52.228 54.9108 52.324 54.2148 52.324ZM80.8033 52.432C79.6513 52.432 78.5233 52.24 77.4193 51.856C76.3393 51.448 75.3553 50.86 74.4673 50.092C73.6033 49.324 72.9073 48.388 72.3793 47.284C71.8753 46.156 71.6233 44.884 71.6233 43.468C71.6233 42.052 71.8753 40.792 72.3793 39.688C72.9073 38.584 73.6033 37.648 74.4673 36.88C75.3313 36.112 76.3033 35.524 77.3833 35.116C78.4633 34.708 79.5793 34.504 80.7313 34.504C81.5713 34.504 82.3633 34.624 83.1073 34.864C83.8753 35.104 84.5353 35.392 85.0873 35.728C85.6393 36.064 86.0353 36.4 86.2753 36.736C86.5873 37.024 86.8513 37.3 87.0673 37.564C87.2833 37.828 87.3553 38.152 87.2833 38.536C87.2113 38.776 87.1033 39.004 86.9593 39.22C86.8153 39.412 86.6353 39.616 86.4193 39.832C85.8433 40.48 85.2793 40.72 84.7273 40.552C84.4153 40.384 84.1033 40.204 83.7913 40.012C83.4793 39.82 83.1553 39.64 82.8193 39.472C82.5073 39.28 82.1833 39.124 81.8473 39.004C81.5113 38.884 81.1393 38.824 80.7313 38.824C79.8193 38.824 79.0033 39.028 78.2833 39.436C77.5873 39.82 77.0353 40.36 76.6273 41.056C76.2433 41.752 76.0513 42.556 76.0513 43.468C76.0513 44.38 76.2433 45.196 76.6273 45.916C77.0353 46.612 77.5873 47.164 78.2833 47.572C78.9793 47.956 79.7713 48.148 80.6593 48.148C81.0913 48.148 81.4993 48.1 81.8833 48.004C82.2913 47.884 82.6513 47.74 82.9633 47.572C83.2753 47.38 83.5273 47.188 83.7193 46.996C83.9833 46.828 84.2233 46.672 84.4393 46.528C84.6553 46.384 84.8833 46.312 85.1233 46.312C85.4113 46.312 85.6873 46.42 85.9513 46.636C86.2393 46.828 86.5513 47.14 86.8873 47.572C87.1993 47.932 87.3673 48.28 87.3913 48.616C87.4393 48.952 87.3673 49.276 87.1753 49.588C87.0073 49.9 86.7193 50.188 86.3113 50.452C86.0233 50.74 85.5913 51.04 85.0153 51.352C84.4633 51.64 83.8153 51.892 83.0713 52.108C82.3513 52.324 81.5953 52.432 80.8033 52.432ZM98.7614 52.576C97.6094 52.576 96.4814 52.36 95.3774 51.928C94.2974 51.472 93.3134 50.836 92.4254 50.02C91.5614 49.204 90.8654 48.244 90.3374 47.14C89.8334 46.036 89.5814 44.824 89.5814 43.504C89.5814 42.232 89.8214 41.044 90.3014 39.94C90.7814 38.836 91.4414 37.864 92.2814 37.024C93.1214 36.184 94.0814 35.536 95.1614 35.08C96.2654 34.6 97.4414 34.36 98.6894 34.36C100.369 34.36 101.893 34.768 103.261 35.584C104.629 36.376 105.721 37.456 106.537 38.824C107.353 40.192 107.761 41.74 107.761 43.468C107.761 44.836 107.509 46.084 107.005 47.212C106.501 48.316 105.817 49.276 104.953 50.092C104.089 50.884 103.117 51.496 102.037 51.928C100.981 52.36 99.8894 52.576 98.7614 52.576ZM98.6894 48.328C99.4814 48.328 100.237 48.136 100.957 47.752C101.701 47.344 102.301 46.768 102.757 46.024C103.237 45.28 103.477 44.404 103.477 43.396C103.477 42.46 103.261 41.632 102.829 40.912C102.421 40.192 101.857 39.628 101.137 39.22C100.417 38.812 99.5894 38.608 98.6534 38.608C97.7654 38.608 96.9614 38.824 96.2414 39.256C95.5214 39.664 94.9454 40.24 94.5134 40.984C94.1054 41.704 93.9014 42.52 93.9014 43.432C93.9014 44.44 94.1294 45.316 94.5854 46.06C95.0414 46.78 95.6294 47.344 96.3494 47.752C97.0934 48.136 97.8734 48.328 98.6894 48.328ZM112.715 52.324C112.067 52.324 111.587 52.216 111.275 52C110.987 51.808 110.807 51.556 110.735 51.244C110.663 50.908 110.627 50.536 110.627 50.128V36.664C110.627 36.28 110.663 35.932 110.735 35.62C110.807 35.308 110.999 35.068 111.311 34.9C111.623 34.708 112.103 34.612 112.751 34.612C113.327 34.612 113.759 34.684 114.047 34.828C114.335 34.972 114.527 35.152 114.623 35.368C114.719 35.584 114.767 35.8 114.767 36.016C114.791 36.232 114.815 36.4 114.839 36.52L114.695 37.672C114.839 37.288 115.079 36.916 115.415 36.556C115.751 36.196 116.159 35.872 116.639 35.584C117.119 35.272 117.635 35.032 118.187 34.864C118.763 34.672 119.351 34.576 119.951 34.576C121.079 34.576 122.087 34.78 122.975 35.188C123.863 35.596 124.619 36.172 125.243 36.916C125.891 37.66 126.383 38.548 126.719 39.58C127.055 40.588 127.223 41.728 127.223 43V50.164C127.223 50.572 127.175 50.944 127.079 51.28C127.007 51.592 126.827 51.844 126.539 52.036C126.251 52.228 125.759 52.324 125.063 52.324C124.391 52.324 123.899 52.216 123.587 52C123.275 51.808 123.083 51.556 123.011 51.244C122.939 50.908 122.903 50.536 122.903 50.128V42.964C122.903 42.1 122.747 41.356 122.435 40.732C122.147 40.108 121.715 39.628 121.139 39.292C120.587 38.956 119.879 38.788 119.015 38.788C118.175 38.788 117.443 38.968 116.819 39.328C116.195 39.664 115.715 40.144 115.379 40.768C115.043 41.392 114.875 42.124 114.875 42.964V50.164C114.875 50.572 114.839 50.944 114.767 51.28C114.695 51.592 114.503 51.844 114.191 52.036C113.903 52.228 113.411 52.324 112.715 52.324ZM139.132 52.36C137.956 52.36 136.948 52.24 136.108 52C135.268 51.76 134.584 51.388 134.056 50.884C133.528 50.38 133.132 49.732 132.868 48.94C132.628 48.124 132.508 47.164 132.508 46.06V30.796C132.508 30.364 132.544 29.992 132.616 29.68C132.712 29.368 132.904 29.128 133.192 28.96C133.504 28.768 133.984 28.672 134.632 28.672C135.304 28.672 135.784 28.768 136.072 28.96C136.384 29.152 136.576 29.416 136.648 29.752C136.744 30.064 136.792 30.412 136.792 30.796V45.916C136.792 46.42 136.828 46.828 136.9 47.14C136.996 47.452 137.128 47.692 137.296 47.86C137.488 48.004 137.728 48.112 138.016 48.184C138.328 48.232 138.7 48.256 139.132 48.256C139.588 48.256 139.972 48.292 140.284 48.364C140.62 48.436 140.872 48.616 141.04 48.904C141.208 49.168 141.292 49.612 141.292 50.236C141.292 50.908 141.184 51.4 140.968 51.712C140.776 52 140.512 52.18 140.176 52.252C139.864 52.324 139.516 52.36 139.132 52.36ZM131.032 34.972L134.74 35.008L139.708 34.864C140.116 34.864 140.476 34.912 140.788 35.008C141.124 35.08 141.388 35.272 141.58 35.584C141.772 35.872 141.868 36.352 141.868 37.024C141.868 37.648 141.772 38.116 141.58 38.428C141.388 38.74 141.136 38.944 140.824 39.04C140.512 39.112 140.152 39.148 139.744 39.148L134.92 39.076L130.924 39.112C130.324 39.088 129.904 38.92 129.664 38.608C129.448 38.272 129.34 37.732 129.34 36.988C129.34 36.292 129.472 35.788 129.736 35.476C130.024 35.14 130.456 34.972 131.032 34.972ZM146.676 52.36C146.028 52.36 145.548 52.252 145.236 52.036C144.948 51.844 144.768 51.58 144.696 51.244C144.624 50.908 144.588 50.536 144.588 50.128V36.772C144.588 36.34 144.624 35.968 144.696 35.656C144.768 35.32 144.948 35.068 145.236 34.9C145.548 34.708 146.04 34.612 146.712 34.612C147.36 34.612 147.828 34.696 148.116 34.864C148.428 35.032 148.62 35.248 148.692 35.512C148.788 35.752 148.836 35.992 148.836 36.232L148.548 36.88C148.668 36.688 148.836 36.46 149.052 36.196C149.268 35.908 149.556 35.632 149.916 35.368C150.276 35.08 150.708 34.852 151.212 34.684C151.716 34.492 152.316 34.396 153.012 34.396C153.3 34.396 153.6 34.432 153.912 34.504C154.248 34.552 154.572 34.636 154.884 34.756C155.22 34.852 155.52 34.984 155.784 35.152C156.048 35.32 156.252 35.524 156.396 35.764C156.54 35.98 156.612 36.232 156.612 36.52C156.612 37.288 156.42 37.936 156.036 38.464C155.652 38.992 155.196 39.256 154.668 39.256C154.308 39.256 154.044 39.22 153.876 39.148C153.708 39.076 153.564 38.992 153.444 38.896C153.348 38.8 153.192 38.716 152.976 38.644C152.784 38.572 152.472 38.536 152.04 38.536C151.68 38.536 151.308 38.596 150.924 38.716C150.564 38.836 150.228 39.016 149.916 39.256C149.604 39.496 149.352 39.808 149.16 40.192C148.968 40.552 148.872 40.972 148.872 41.452V50.2C148.872 50.608 148.836 50.98 148.764 51.316C148.692 51.628 148.5 51.88 148.188 52.072C147.876 52.264 147.372 52.36 146.676 52.36ZM166.971 52.576C165.411 52.576 164.043 52.324 162.867 51.82C161.715 51.316 160.743 50.632 159.951 49.768C159.183 48.88 158.595 47.896 158.187 46.816C157.803 45.712 157.611 44.572 157.611 43.396C157.611 41.668 158.007 40.132 158.799 38.788C159.591 37.444 160.683 36.388 162.075 35.62C163.491 34.852 165.111 34.468 166.935 34.468C168.231 34.468 169.371 34.672 170.355 35.08C171.339 35.488 172.155 36.028 172.803 36.7C173.475 37.348 173.979 38.068 174.315 38.86C174.675 39.652 174.855 40.42 174.855 41.164C174.855 42.436 174.543 43.36 173.919 43.936C173.319 44.512 172.563 44.8 171.651 44.8H162.147C162.171 45.616 162.423 46.324 162.903 46.924C163.407 47.524 164.031 47.992 164.775 48.328C165.543 48.64 166.323 48.796 167.115 48.796C167.715 48.796 168.243 48.76 168.699 48.688C169.179 48.616 169.587 48.532 169.923 48.436C170.259 48.316 170.547 48.196 170.787 48.076C171.051 47.956 171.291 47.848 171.507 47.752C171.723 47.656 171.927 47.596 172.119 47.572C172.383 47.548 172.647 47.608 172.911 47.752C173.175 47.896 173.391 48.148 173.559 48.508C173.703 48.748 173.799 48.976 173.847 49.192C173.919 49.384 173.955 49.576 173.955 49.768C173.955 50.248 173.667 50.704 173.091 51.136C172.515 51.544 171.699 51.88 170.643 52.144C169.611 52.432 168.387 52.576 166.971 52.576ZM162.147 42.244H169.527C169.935 42.244 170.247 42.184 170.463 42.064C170.679 41.92 170.787 41.632 170.787 41.2C170.787 40.648 170.619 40.156 170.283 39.724C169.947 39.268 169.491 38.92 168.915 38.68C168.339 38.416 167.667 38.284 166.899 38.284C166.011 38.284 165.207 38.464 164.487 38.824C163.767 39.16 163.191 39.628 162.759 40.228C162.351 40.828 162.147 41.5 162.147 42.244ZM201.148 52.288C200.452 52.288 199.936 52.156 199.6 51.892C199.264 51.628 199.096 51.268 199.096 50.812L199.348 49.624C199.156 49.936 198.832 50.308 198.376 50.74C197.92 51.148 197.32 51.52 196.576 51.856C195.832 52.168 194.932 52.324 193.876 52.324C192.748 52.324 191.68 52.096 190.672 51.64C189.688 51.16 188.812 50.512 188.044 49.696C187.3 48.856 186.7 47.908 186.244 46.852C185.812 45.772 185.596 44.62 185.596 43.396C185.596 42.22 185.812 41.116 186.244 40.084C186.7 39.028 187.312 38.092 188.08 37.276C188.848 36.46 189.724 35.824 190.708 35.368C191.716 34.888 192.772 34.648 193.876 34.648C194.86 34.648 195.688 34.78 196.36 35.044C197.056 35.308 197.644 35.644 198.124 36.052C198.604 36.436 199 36.844 199.312 37.276L199.096 36.232C199.096 35.704 199.264 35.308 199.6 35.044C199.936 34.756 200.464 34.612 201.184 34.612C201.856 34.612 202.336 34.72 202.624 34.936C202.912 35.128 203.092 35.404 203.164 35.764C203.236 36.1 203.272 36.484 203.272 36.916V50.092C203.272 50.5 203.236 50.872 203.164 51.208C203.092 51.544 202.9 51.808 202.588 52C202.3 52.192 201.82 52.288 201.148 52.288ZM194.524 48.112C195.34 48.112 196.072 47.908 196.72 47.5C197.368 47.092 197.884 46.54 198.268 45.844C198.676 45.124 198.88 44.332 198.88 43.468C198.88 42.532 198.676 41.716 198.268 41.02C197.86 40.324 197.32 39.784 196.648 39.4C196 38.992 195.268 38.788 194.452 38.788C193.564 38.788 192.772 39.004 192.076 39.436C191.38 39.844 190.828 40.408 190.42 41.128C190.036 41.824 189.844 42.616 189.844 43.504C189.844 44.368 190.048 45.148 190.456 45.844C190.864 46.54 191.416 47.092 192.112 47.5C192.832 47.908 193.636 48.112 194.524 48.112ZM227.225 52.648C225.497 52.648 223.877 52.324 222.365 51.676C220.877 51.004 219.557 50.092 218.405 48.94C217.253 47.764 216.353 46.42 215.705 44.908C215.057 43.372 214.733 41.728 214.733 39.976C214.733 38.176 215.045 36.496 215.669 34.936C216.317 33.352 217.193 31.972 218.297 30.796C219.425 29.596 220.721 28.66 222.185 27.988C223.649 27.316 225.221 26.98 226.901 26.98C228.653 26.98 230.273 27.316 231.761 27.988C233.273 28.636 234.593 29.548 235.721 30.724C236.849 31.9 237.737 33.268 238.385 34.828C239.033 36.364 239.357 38.032 239.357 39.832C239.357 41.584 239.045 43.24 238.421 44.8C237.797 46.336 236.921 47.704 235.793 48.904C234.665 50.08 233.369 51.004 231.905 51.676C230.465 52.324 228.905 52.648 227.225 52.648ZM227.045 48.256C228.149 48.256 229.181 48.04 230.141 47.608C231.101 47.176 231.941 46.576 232.661 45.808C233.405 45.04 233.981 44.152 234.389 43.144C234.797 42.112 235.001 41.008 235.001 39.832C235.001 38.656 234.785 37.564 234.353 36.556C233.945 35.524 233.369 34.624 232.625 33.856C231.905 33.064 231.065 32.452 230.105 32.02C229.169 31.588 228.149 31.372 227.045 31.372C225.965 31.372 224.945 31.588 223.985 32.02C223.025 32.452 222.173 33.064 221.429 33.856C220.709 34.624 220.145 35.524 219.737 36.556C219.329 37.588 219.125 38.68 219.125 39.832C219.125 40.984 219.329 42.076 219.737 43.108C220.169 44.14 220.745 45.04 221.465 45.808C222.185 46.576 223.013 47.176 223.949 47.608C224.909 48.04 225.941 48.256 227.045 48.256ZM244.165 52.324C243.517 52.324 243.037 52.216 242.725 52C242.437 51.808 242.245 51.544 242.149 51.208C242.077 50.872 242.041 50.512 242.041 50.128V29.248C242.041 28.888 242.089 28.552 242.185 28.24C242.281 27.928 242.485 27.676 242.797 27.484C243.133 27.292 243.625 27.196 244.273 27.196C244.993 27.196 245.485 27.28 245.749 27.448C246.037 27.592 246.301 27.808 246.541 28.096L258.565 44.908V29.248C258.565 28.888 258.613 28.552 258.709 28.24C258.805 27.928 259.009 27.676 259.321 27.484C259.633 27.292 260.113 27.196 260.761 27.196C261.433 27.196 261.913 27.304 262.201 27.52C262.513 27.712 262.705 27.976 262.777 28.312C262.873 28.648 262.921 29.02 262.921 29.428V50.164C262.921 50.548 262.861 50.908 262.741 51.244C262.645 51.556 262.429 51.808 262.093 52C261.781 52.216 261.289 52.324 260.617 52.324C260.089 52.324 259.669 52.276 259.357 52.18C259.069 52.084 258.805 51.88 258.565 51.568L246.361 34.792V50.164C246.361 50.548 246.313 50.908 246.217 51.244C246.145 51.556 245.953 51.808 245.641 52C245.329 52.216 244.837 52.324 244.165 52.324ZM279.276 52.504C277.476 52.504 275.82 52.192 274.308 51.568C272.796 50.92 271.488 50.008 270.384 48.832C269.28 47.656 268.428 46.276 267.828 44.692C267.228 43.084 266.928 41.308 266.928 39.364C266.928 37.54 267.24 35.872 267.864 34.36C268.488 32.848 269.364 31.54 270.492 30.436C271.62 29.308 272.952 28.432 274.488 27.808C276.048 27.184 277.752 26.872 279.6 26.872C280.368 26.872 281.16 26.944 281.976 27.088C282.792 27.208 283.584 27.412 284.352 27.7C285.12 27.964 285.792 28.3 286.368 28.708C286.824 28.996 287.208 29.296 287.52 29.608C287.856 29.896 288.036 30.232 288.06 30.616C288.084 30.832 288.048 31.072 287.952 31.336C287.856 31.576 287.712 31.828 287.52 32.092C287.256 32.5 286.968 32.8 286.656 32.992C286.368 33.184 286.08 33.28 285.792 33.28C285.624 33.28 285.42 33.22 285.18 33.1C284.94 32.956 284.616 32.764 284.208 32.524C283.896 32.308 283.488 32.104 282.984 31.912C282.48 31.72 281.928 31.564 281.328 31.444C280.728 31.324 280.104 31.264 279.456 31.264C277.848 31.264 276.432 31.6 275.208 32.272C273.984 32.944 273.024 33.904 272.328 35.152C271.656 36.376 271.32 37.816 271.32 39.472C271.32 41.176 271.668 42.676 272.364 43.972C273.06 45.268 274.008 46.288 275.208 47.032C276.432 47.752 277.836 48.112 279.42 48.112C279.972 48.112 280.524 48.076 281.076 48.004C281.652 47.932 282.204 47.824 282.732 47.68C283.284 47.536 283.788 47.356 284.244 47.14V41.452H279.132C278.796 41.452 278.484 41.416 278.196 41.344C277.932 41.272 277.716 41.104 277.548 40.84C277.404 40.576 277.332 40.144 277.332 39.544C277.332 38.92 277.416 38.476 277.584 38.212C277.752 37.948 277.968 37.78 278.232 37.708C278.52 37.636 278.832 37.6 279.168 37.6H286.512C287.136 37.6 287.592 37.708 287.88 37.924C288.168 38.14 288.36 38.416 288.456 38.752C288.552 39.064 288.6 39.424 288.6 39.832V48.22C288.6 48.7 288.36 49.192 287.88 49.696C287.424 50.2 286.776 50.668 285.936 51.1C285.384 51.388 284.748 51.64 284.028 51.856C283.332 52.048 282.576 52.204 281.76 52.324C280.968 52.444 280.14 52.504 279.276 52.504ZM303.683 52.324C303.035 52.324 302.555 52.228 302.243 52.036C301.955 51.844 301.775 51.58 301.703 51.244C301.631 50.908 301.595 50.548 301.595 50.164V36.7C301.595 36.316 301.631 35.968 301.703 35.656C301.775 35.344 301.967 35.092 302.279 34.9C302.591 34.708 303.083 34.612 303.755 34.612C304.451 34.612 304.955 34.756 305.267 35.044C305.603 35.332 305.771 35.788 305.771 36.412L305.447 37.42C305.567 37.156 305.771 36.868 306.059 36.556C306.347 36.244 306.695 35.932 307.103 35.62C307.535 35.308 308.015 35.056 308.543 34.864C309.071 34.672 309.623 34.576 310.199 34.576C310.991 34.576 311.711 34.708 312.359 34.972C313.031 35.236 313.619 35.62 314.123 36.124C314.651 36.628 315.107 37.24 315.491 37.96C315.899 37.336 316.355 36.772 316.859 36.268C317.363 35.74 317.951 35.332 318.623 35.044C319.295 34.732 320.051 34.576 320.891 34.576C322.283 34.576 323.447 34.924 324.383 35.62C325.343 36.316 326.063 37.312 326.543 38.608C327.047 39.88 327.299 41.404 327.299 43.18V50.164C327.299 50.572 327.251 50.944 327.155 51.28C327.083 51.592 326.891 51.844 326.579 52.036C326.291 52.228 325.811 52.324 325.139 52.324C324.467 52.324 323.975 52.216 323.663 52C323.351 51.808 323.159 51.556 323.087 51.244C323.015 50.908 322.979 50.536 322.979 50.128V43.144C322.979 42.256 322.871 41.488 322.655 40.84C322.439 40.192 322.115 39.688 321.683 39.328C321.275 38.968 320.735 38.788 320.063 38.788C319.343 38.788 318.719 38.968 318.191 39.328C317.687 39.664 317.291 40.156 317.003 40.804C316.715 41.452 316.571 42.244 316.571 43.18V50.2C316.571 50.608 316.511 50.992 316.391 51.352C316.271 51.688 316.031 51.94 315.671 52.108C315.335 52.3 314.843 52.372 314.195 52.324C313.595 52.3 313.151 52.18 312.863 51.964C312.599 51.748 312.431 51.484 312.359 51.172C312.311 50.836 312.287 50.488 312.287 50.128V43.144C312.287 42.256 312.179 41.488 311.963 40.84C311.747 40.168 311.423 39.664 310.991 39.328C310.583 38.968 310.031 38.788 309.335 38.788C308.591 38.788 307.955 38.98 307.427 39.364C306.923 39.748 306.539 40.264 306.275 40.912C306.011 41.56 305.879 42.304 305.879 43.144V50.2C305.879 50.584 305.831 50.944 305.735 51.28C305.663 51.616 305.471 51.868 305.159 52.036C304.871 52.228 304.379 52.324 303.683 52.324ZM345.675 52.288C344.979 52.288 344.463 52.156 344.127 51.892C343.791 51.628 343.623 51.268 343.623 50.812L343.875 49.624C343.683 49.936 343.359 50.308 342.903 50.74C342.447 51.148 341.847 51.52 341.103 51.856C340.359 52.168 339.459 52.324 338.403 52.324C337.275 52.324 336.207 52.096 335.199 51.64C334.215 51.16 333.339 50.512 332.571 49.696C331.827 48.856 331.227 47.908 330.771 46.852C330.339 45.772 330.123 44.62 330.123 43.396C330.123 42.22 330.339 41.116 330.771 40.084C331.227 39.028 331.839 38.092 332.607 37.276C333.375 36.46 334.251 35.824 335.235 35.368C336.243 34.888 337.299 34.648 338.403 34.648C339.387 34.648 340.215 34.78 340.887 35.044C341.583 35.308 342.171 35.644 342.651 36.052C343.131 36.436 343.527 36.844 343.839 37.276L343.623 36.232C343.623 35.704 343.791 35.308 344.127 35.044C344.463 34.756 344.991 34.612 345.711 34.612C346.383 34.612 346.863 34.72 347.151 34.936C347.439 35.128 347.619 35.404 347.691 35.764C347.763 36.1 347.799 36.484 347.799 36.916V50.092C347.799 50.5 347.763 50.872 347.691 51.208C347.619 51.544 347.427 51.808 347.115 52C346.827 52.192 346.347 52.288 345.675 52.288ZM339.051 48.112C339.867 48.112 340.599 47.908 341.247 47.5C341.895 47.092 342.411 46.54 342.795 45.844C343.203 45.124 343.407 44.332 343.407 43.468C343.407 42.532 343.203 41.716 342.795 41.02C342.387 40.324 341.847 39.784 341.175 39.4C340.527 38.992 339.795 38.788 338.979 38.788C338.091 38.788 337.299 39.004 336.603 39.436C335.907 39.844 335.355 40.408 334.947 41.128C334.563 41.824 334.371 42.616 334.371 43.504C334.371 44.368 334.575 45.148 334.983 45.844C335.391 46.54 335.943 47.092 336.639 47.5C337.359 47.908 338.163 48.112 339.051 48.112ZM353.715 52.36C353.067 52.36 352.587 52.252 352.275 52.036C351.963 51.844 351.771 51.592 351.699 51.28C351.627 50.944 351.591 50.572 351.591 50.164V36.772C351.591 36.388 351.627 36.04 351.699 35.728C351.795 35.392 351.987 35.128 352.275 34.936C352.587 34.744 353.079 34.648 353.751 34.648C354.423 34.648 354.903 34.744 355.191 34.936C355.503 35.128 355.695 35.392 355.767 35.728C355.839 36.064 355.875 36.436 355.875 36.844V50.2C355.875 50.608 355.839 50.98 355.767 51.316C355.695 51.628 355.503 51.88 355.191 52.072C354.903 52.264 354.411 52.36 353.715 52.36ZM353.715 31.156C353.019 31.156 352.503 31.06 352.167 30.868C351.855 30.652 351.651 30.364 351.555 30.004C351.483 29.644 351.447 29.248 351.447 28.816C351.447 28.36 351.483 27.964 351.555 27.628C351.651 27.292 351.867 27.028 352.203 26.836C352.539 26.62 353.055 26.512 353.751 26.512C354.471 26.512 354.987 26.62 355.299 26.836C355.611 27.052 355.815 27.34 355.911 27.7C356.007 28.036 356.055 28.432 356.055 28.888C356.055 29.296 356.007 29.68 355.911 30.04C355.815 30.4 355.611 30.676 355.299 30.868C354.987 31.06 354.459 31.156 353.715 31.156ZM365.969 52.576C365.345 52.576 364.685 52.504 363.989 52.36C363.293 52.24 362.621 52.06 361.973 51.82C361.325 51.556 360.761 51.256 360.281 50.92C359.825 50.56 359.537 50.164 359.417 49.732C359.321 49.492 359.285 49.264 359.309 49.048C359.333 48.808 359.405 48.568 359.525 48.328C359.645 48.064 359.825 47.8 360.065 47.536C360.281 47.272 360.497 47.128 360.713 47.104C360.953 47.056 361.253 47.128 361.613 47.32C361.925 47.44 362.261 47.596 362.621 47.788C363.005 47.98 363.389 48.172 363.773 48.364C364.181 48.556 364.589 48.712 364.997 48.832C365.429 48.952 365.849 49.012 366.257 49.012C367.145 49.012 367.853 48.868 368.381 48.58C368.909 48.268 369.173 47.836 369.173 47.284C369.173 46.972 369.089 46.696 368.921 46.456C368.753 46.216 368.525 46.024 368.237 45.88C367.973 45.712 367.649 45.568 367.265 45.448C366.905 45.304 366.509 45.184 366.077 45.088C365.669 44.968 365.237 44.836 364.781 44.692C364.181 44.524 363.581 44.32 362.981 44.08C362.381 43.84 361.841 43.528 361.361 43.144C360.905 42.76 360.533 42.28 360.245 41.704C359.957 41.128 359.813 40.408 359.813 39.544C359.813 38.464 360.065 37.552 360.569 36.808C361.097 36.04 361.853 35.452 362.837 35.044C363.821 34.636 365.009 34.432 366.401 34.432C366.881 34.432 367.337 34.468 367.769 34.54C368.225 34.612 368.657 34.72 369.065 34.864C369.497 34.984 369.905 35.14 370.289 35.332C370.697 35.524 371.081 35.74 371.441 35.98C372.041 36.316 372.353 36.712 372.377 37.168C372.401 37.6 372.233 38.068 371.873 38.572C371.609 38.908 371.345 39.148 371.081 39.292C370.817 39.412 370.541 39.412 370.253 39.292C369.869 39.1 369.449 38.896 368.993 38.68C368.561 38.44 368.105 38.236 367.625 38.068C367.169 37.9 366.689 37.816 366.185 37.816C365.705 37.816 365.273 37.888 364.889 38.032C364.505 38.176 364.217 38.38 364.025 38.644C363.833 38.908 363.737 39.22 363.737 39.58C363.737 39.916 363.833 40.192 364.025 40.408C364.217 40.624 364.469 40.804 364.781 40.948C365.093 41.092 365.465 41.224 365.897 41.344C366.329 41.44 366.785 41.536 367.265 41.632C367.937 41.776 368.621 41.956 369.317 42.172C370.013 42.388 370.649 42.688 371.225 43.072C371.825 43.456 372.305 43.972 372.665 44.62C373.025 45.244 373.205 46.06 373.205 47.068C373.205 48.82 372.557 50.176 371.261 51.136C369.989 52.096 368.225 52.576 365.969 52.576ZM394.375 52.108C393.199 52.108 392.143 51.892 391.207 51.46C390.295 51.004 389.515 50.38 388.867 49.588C388.243 48.772 387.763 47.836 387.427 46.78C387.115 45.724 386.959 44.584 386.959 43.36C386.983 42.136 387.163 40.996 387.499 39.94C387.835 38.86 388.315 37.924 388.939 37.132C389.587 36.34 390.367 35.716 391.279 35.26C392.191 34.804 393.223 34.576 394.375 34.576C395.479 34.576 396.511 34.804 397.471 35.26C398.455 35.716 399.319 36.352 400.063 37.168C400.831 37.984 401.431 38.932 401.863 40.012C402.295 41.068 402.511 42.208 402.511 43.432C402.511 44.68 402.295 45.832 401.863 46.888C401.431 47.944 400.843 48.868 400.099 49.66C399.355 50.428 398.491 51.028 397.507 51.46C396.523 51.892 395.479 52.108 394.375 52.108ZM387.175 59.596C386.527 59.596 386.047 59.5 385.735 59.308C385.423 59.116 385.231 58.864 385.159 58.552C385.087 58.24 385.051 57.88 385.051 57.472V36.772C385.051 36.364 385.087 36.004 385.159 35.692C385.231 35.38 385.411 35.128 385.699 34.936C386.011 34.72 386.491 34.612 387.139 34.612C387.763 34.612 388.255 34.708 388.615 34.9C388.975 35.092 389.215 35.416 389.335 35.872V57.436C389.359 57.844 389.323 58.204 389.227 58.516C389.155 58.852 388.963 59.116 388.651 59.308C388.339 59.5 387.847 59.596 387.175 59.596ZM393.799 48.076C394.639 48.076 395.395 47.884 396.067 47.5C396.739 47.092 397.267 46.54 397.651 45.844C398.059 45.124 398.263 44.32 398.263 43.432C398.263 42.52 398.059 41.716 397.651 41.02C397.267 40.324 396.739 39.784 396.067 39.4C395.395 38.992 394.639 38.788 393.799 38.788C392.983 38.788 392.239 38.992 391.567 39.4C390.895 39.808 390.355 40.36 389.947 41.056C389.563 41.728 389.371 42.52 389.371 43.432C389.371 44.32 389.563 45.124 389.947 45.844C390.355 46.54 390.895 47.092 391.567 47.5C392.239 47.884 392.983 48.076 393.799 48.076ZM407.676 52.36C407.028 52.36 406.548 52.252 406.236 52.036C405.948 51.844 405.768 51.58 405.696 51.244C405.624 50.908 405.588 50.536 405.588 50.128V36.772C405.588 36.34 405.624 35.968 405.696 35.656C405.768 35.32 405.948 35.068 406.236 34.9C406.548 34.708 407.04 34.612 407.712 34.612C408.36 34.612 408.828 34.696 409.116 34.864C409.428 35.032 409.62 35.248 409.692 35.512C409.788 35.752 409.836 35.992 409.836 36.232L409.548 36.88C409.668 36.688 409.836 36.46 410.052 36.196C410.268 35.908 410.556 35.632 410.916 35.368C411.276 35.08 411.708 34.852 412.212 34.684C412.716 34.492 413.316 34.396 414.012 34.396C414.3 34.396 414.6 34.432 414.912 34.504C415.248 34.552 415.572 34.636 415.884 34.756C416.22 34.852 416.52 34.984 416.784 35.152C417.048 35.32 417.252 35.524 417.396 35.764C417.54 35.98 417.612 36.232 417.612 36.52C417.612 37.288 417.42 37.936 417.036 38.464C416.652 38.992 416.196 39.256 415.668 39.256C415.308 39.256 415.044 39.22 414.876 39.148C414.708 39.076 414.564 38.992 414.444 38.896C414.348 38.8 414.192 38.716 413.976 38.644C413.784 38.572 413.472 38.536 413.04 38.536C412.68 38.536 412.308 38.596 411.924 38.716C411.564 38.836 411.228 39.016 410.916 39.256C410.604 39.496 410.352 39.808 410.16 40.192C409.968 40.552 409.872 40.972 409.872 41.452V50.2C409.872 50.608 409.836 50.98 409.764 51.316C409.692 51.628 409.5 51.88 409.188 52.072C408.876 52.264 408.372 52.36 407.676 52.36ZM427.683 52.576C426.531 52.576 425.403 52.36 424.299 51.928C423.219 51.472 422.235 50.836 421.347 50.02C420.483 49.204 419.787 48.244 419.259 47.14C418.755 46.036 418.503 44.824 418.503 43.504C418.503 42.232 418.743 41.044 419.223 39.94C419.703 38.836 420.363 37.864 421.203 37.024C422.043 36.184 423.003 35.536 424.083 35.08C425.187 34.6 426.363 34.36 427.611 34.36C429.291 34.36 430.815 34.768 432.183 35.584C433.551 36.376 434.643 37.456 435.459 38.824C436.275 40.192 436.683 41.74 436.683 43.468C436.683 44.836 436.431 46.084 435.927 47.212C435.423 48.316 434.739 49.276 433.875 50.092C433.011 50.884 432.039 51.496 430.959 51.928C429.903 52.36 428.811 52.576 427.683 52.576ZM427.611 48.328C428.403 48.328 429.159 48.136 429.879 47.752C430.623 47.344 431.223 46.768 431.679 46.024C432.159 45.28 432.399 44.404 432.399 43.396C432.399 42.46 432.183 41.632 431.751 40.912C431.343 40.192 430.779 39.628 430.059 39.22C429.339 38.812 428.511 38.608 427.575 38.608C426.687 38.608 425.883 38.824 425.163 39.256C424.443 39.664 423.867 40.24 423.435 40.984C423.027 41.704 422.823 42.52 422.823 43.432C422.823 44.44 423.051 45.316 423.507 46.06C423.963 46.78 424.551 47.344 425.271 47.752C426.015 48.136 426.795 48.328 427.611 48.328ZM426.459 32.776C426.075 32.848 425.751 32.776 425.487 32.56C425.247 32.344 425.043 31.96 424.875 31.408C424.659 30.736 424.611 30.232 424.731 29.896C424.875 29.536 425.247 29.26 425.847 29.068L431.895 27.16C432.279 27.088 432.591 27.172 432.831 27.412C433.095 27.628 433.299 28.012 433.443 28.564C433.683 29.212 433.719 29.716 433.551 30.076C433.407 30.412 433.047 30.676 432.471 30.868L426.459 32.776ZM453.282 35.116C453.738 35.524 454.026 35.884 454.146 36.196C454.29 36.508 454.29 36.832 454.146 37.168C454.026 37.48 453.762 37.864 453.354 38.32L441.942 51.532C441.534 51.964 441.174 52.252 440.862 52.396C440.55 52.564 440.238 52.588 439.926 52.468C439.638 52.348 439.29 52.12 438.882 51.784C438.474 51.376 438.198 51.028 438.054 50.74C437.91 50.428 437.91 50.104 438.054 49.768C438.222 49.432 438.498 49.048 438.882 48.616L450.294 35.404C450.894 34.756 451.386 34.408 451.77 34.36C452.178 34.312 452.682 34.564 453.282 35.116ZM438.918 35.116C439.326 34.756 439.674 34.528 439.962 34.432C440.274 34.336 440.574 34.372 440.862 34.54C441.174 34.684 441.522 34.972 441.906 35.404L453.318 48.616C453.726 49.048 454.002 49.432 454.146 49.768C454.29 50.104 454.302 50.428 454.182 50.74C454.062 51.028 453.774 51.376 453.318 51.784C452.91 52.144 452.55 52.372 452.238 52.468C451.95 52.588 451.65 52.564 451.338 52.396C451.05 52.252 450.69 51.964 450.258 51.532L438.846 38.32C438.462 37.888 438.198 37.504 438.054 37.168C437.91 36.832 437.91 36.508 438.054 36.196C438.198 35.86 438.486 35.5 438.918 35.116ZM459.43 52.36C458.782 52.36 458.302 52.252 457.99 52.036C457.678 51.844 457.486 51.592 457.414 51.28C457.342 50.944 457.306 50.572 457.306 50.164V36.772C457.306 36.388 457.342 36.04 457.414 35.728C457.51 35.392 457.702 35.128 457.99 34.936C458.302 34.744 458.794 34.648 459.466 34.648C460.138 34.648 460.618 34.744 460.906 34.936C461.218 35.128 461.41 35.392 461.482 35.728C461.554 36.064 461.59 36.436 461.59 36.844V50.2C461.59 50.608 461.554 50.98 461.482 51.316C461.41 51.628 461.218 51.88 460.906 52.072C460.618 52.264 460.126 52.36 459.43 52.36ZM459.43 31.156C458.734 31.156 458.218 31.06 457.882 30.868C457.57 30.652 457.366 30.364 457.27 30.004C457.198 29.644 457.162 29.248 457.162 28.816C457.162 28.36 457.198 27.964 457.27 27.628C457.366 27.292 457.582 27.028 457.918 26.836C458.254 26.62 458.77 26.512 459.466 26.512C460.186 26.512 460.702 26.62 461.014 26.836C461.326 27.052 461.53 27.34 461.626 27.7C461.722 28.036 461.77 28.432 461.77 28.888C461.77 29.296 461.722 29.68 461.626 30.04C461.53 30.4 461.326 30.676 461.014 30.868C460.702 31.06 460.174 31.156 459.43 31.156ZM467.616 52.324C466.968 52.324 466.488 52.228 466.176 52.036C465.888 51.844 465.708 51.58 465.636 51.244C465.564 50.908 465.528 50.548 465.528 50.164V36.7C465.528 36.316 465.564 35.968 465.636 35.656C465.708 35.344 465.9 35.092 466.212 34.9C466.524 34.708 467.016 34.612 467.688 34.612C468.384 34.612 468.888 34.756 469.2 35.044C469.536 35.332 469.704 35.788 469.704 36.412L469.38 37.42C469.5 37.156 469.704 36.868 469.992 36.556C470.28 36.244 470.628 35.932 471.036 35.62C471.468 35.308 471.948 35.056 472.476 34.864C473.004 34.672 473.556 34.576 474.132 34.576C474.924 34.576 475.644 34.708 476.292 34.972C476.964 35.236 477.552 35.62 478.056 36.124C478.584 36.628 479.04 37.24 479.424 37.96C479.832 37.336 480.288 36.772 480.792 36.268C481.296 35.74 481.884 35.332 482.556 35.044C483.228 34.732 483.984 34.576 484.824 34.576C486.216 34.576 487.38 34.924 488.316 35.62C489.276 36.316 489.996 37.312 490.476 38.608C490.98 39.88 491.232 41.404 491.232 43.18V50.164C491.232 50.572 491.184 50.944 491.088 51.28C491.016 51.592 490.824 51.844 490.512 52.036C490.224 52.228 489.744 52.324 489.072 52.324C488.4 52.324 487.908 52.216 487.596 52C487.284 51.808 487.092 51.556 487.02 51.244C486.948 50.908 486.912 50.536 486.912 50.128V43.144C486.912 42.256 486.804 41.488 486.588 40.84C486.372 40.192 486.048 39.688 485.616 39.328C485.208 38.968 484.668 38.788 483.996 38.788C483.276 38.788 482.652 38.968 482.124 39.328C481.62 39.664 481.224 40.156 480.936 40.804C480.648 41.452 480.504 42.244 480.504 43.18V50.2C480.504 50.608 480.444 50.992 480.324 51.352C480.204 51.688 479.964 51.94 479.604 52.108C479.268 52.3 478.776 52.372 478.128 52.324C477.528 52.3 477.084 52.18 476.796 51.964C476.532 51.748 476.364 51.484 476.292 51.172C476.244 50.836 476.22 50.488 476.22 50.128V43.144C476.22 42.256 476.112 41.488 475.896 40.84C475.68 40.168 475.356 39.664 474.924 39.328C474.516 38.968 473.964 38.788 473.268 38.788C472.524 38.788 471.888 38.98 471.36 39.364C470.856 39.748 470.472 40.264 470.208 40.912C469.944 41.56 469.812 42.304 469.812 43.144V50.2C469.812 50.584 469.764 50.944 469.668 51.28C469.596 51.616 469.404 51.868 469.092 52.036C468.804 52.228 468.312 52.324 467.616 52.324ZM509.609 52.288C508.913 52.288 508.397 52.156 508.061 51.892C507.725 51.628 507.557 51.268 507.557 50.812L507.809 49.624C507.617 49.936 507.293 50.308 506.837 50.74C506.381 51.148 505.781 51.52 505.037 51.856C504.293 52.168 503.393 52.324 502.337 52.324C501.209 52.324 500.141 52.096 499.133 51.64C498.149 51.16 497.273 50.512 496.505 49.696C495.761 48.856 495.161 47.908 494.705 46.852C494.273 45.772 494.057 44.62 494.057 43.396C494.057 42.22 494.273 41.116 494.705 40.084C495.161 39.028 495.773 38.092 496.541 37.276C497.309 36.46 498.185 35.824 499.169 35.368C500.177 34.888 501.233 34.648 502.337 34.648C503.321 34.648 504.149 34.78 504.821 35.044C505.517 35.308 506.105 35.644 506.585 36.052C507.065 36.436 507.461 36.844 507.773 37.276L507.557 36.232C507.557 35.704 507.725 35.308 508.061 35.044C508.397 34.756 508.925 34.612 509.645 34.612C510.317 34.612 510.797 34.72 511.085 34.936C511.373 35.128 511.553 35.404 511.625 35.764C511.697 36.1 511.733 36.484 511.733 36.916V50.092C511.733 50.5 511.697 50.872 511.625 51.208C511.553 51.544 511.361 51.808 511.049 52C510.761 52.192 510.281 52.288 509.609 52.288ZM502.985 48.112C503.801 48.112 504.533 47.908 505.181 47.5C505.829 47.092 506.345 46.54 506.729 45.844C507.137 45.124 507.341 44.332 507.341 43.468C507.341 42.532 507.137 41.716 506.729 41.02C506.321 40.324 505.781 39.784 505.109 39.4C504.461 38.992 503.729 38.788 502.913 38.788C502.025 38.788 501.233 39.004 500.537 39.436C499.841 39.844 499.289 40.408 498.881 41.128C498.497 41.824 498.305 42.616 498.305 43.504C498.305 44.368 498.509 45.148 498.917 45.844C499.325 46.54 499.877 47.092 500.573 47.5C501.293 47.908 502.097 48.112 502.985 48.112ZM531.906 52.324C530.802 52.324 529.758 52.096 528.774 51.64C527.79 51.184 526.926 50.56 526.182 49.768C525.438 48.952 524.85 48.004 524.418 46.924C523.986 45.82 523.77 44.644 523.77 43.396C523.77 42.196 523.986 41.068 524.418 40.012C524.85 38.932 525.438 37.996 526.182 37.204C526.95 36.388 527.826 35.752 528.81 35.296C529.794 34.84 530.826 34.612 531.906 34.612C533.058 34.612 534.09 34.84 535.002 35.296C535.914 35.752 536.682 36.388 537.306 37.204C537.954 37.996 538.446 38.932 538.782 40.012C539.118 41.068 539.298 42.208 539.322 43.432C539.322 44.656 539.154 45.808 538.818 46.888C538.506 47.944 538.026 48.88 537.378 49.696C536.754 50.512 535.974 51.16 535.038 51.64C534.126 52.096 533.082 52.324 531.906 52.324ZM532.482 48.112C533.322 48.112 534.066 47.92 534.714 47.536C535.386 47.128 535.914 46.576 536.298 45.88C536.706 45.184 536.91 44.392 536.91 43.504C536.91 42.592 536.706 41.788 536.298 41.092C535.914 40.396 535.386 39.844 534.714 39.436C534.066 39.028 533.322 38.824 532.482 38.824C531.642 38.824 530.886 39.028 530.214 39.436C529.542 39.82 529.002 40.372 528.594 41.092C528.21 41.788 528.018 42.592 528.018 43.504C528.018 44.392 528.21 45.184 528.594 45.88C529.002 46.576 529.542 47.128 530.214 47.536C530.91 47.92 531.666 48.112 532.482 48.112ZM539.142 52.324C538.47 52.324 537.978 52.216 537.666 52C537.354 51.76 537.15 51.388 537.054 50.884V28.708C537.054 28.3 537.078 27.94 537.126 27.628C537.198 27.292 537.378 27.028 537.666 26.836C537.978 26.62 538.458 26.512 539.106 26.512C539.802 26.512 540.294 26.608 540.582 26.8C540.87 26.992 541.05 27.256 541.122 27.592C541.218 27.904 541.266 28.264 541.266 28.672V50.128C541.266 50.536 541.23 50.908 541.158 51.244C541.086 51.58 540.894 51.844 540.582 52.036C540.294 52.228 539.814 52.324 539.142 52.324ZM553.549 52.576C551.989 52.576 550.621 52.324 549.445 51.82C548.293 51.316 547.321 50.632 546.529 49.768C545.761 48.88 545.173 47.896 544.765 46.816C544.381 45.712 544.189 44.572 544.189 43.396C544.189 41.668 544.585 40.132 545.377 38.788C546.169 37.444 547.261 36.388 548.653 35.62C550.069 34.852 551.689 34.468 553.513 34.468C554.809 34.468 555.949 34.672 556.933 35.08C557.917 35.488 558.733 36.028 559.381 36.7C560.053 37.348 560.557 38.068 560.893 38.86C561.253 39.652 561.433 40.42 561.433 41.164C561.433 42.436 561.121 43.36 560.497 43.936C559.897 44.512 559.141 44.8 558.229 44.8H548.725C548.749 45.616 549.001 46.324 549.481 46.924C549.985 47.524 550.609 47.992 551.353 48.328C552.121 48.64 552.901 48.796 553.693 48.796C554.293 48.796 554.821 48.76 555.277 48.688C555.757 48.616 556.165 48.532 556.501 48.436C556.837 48.316 557.125 48.196 557.365 48.076C557.629 47.956 557.869 47.848 558.085 47.752C558.301 47.656 558.505 47.596 558.697 47.572C558.961 47.548 559.225 47.608 559.489 47.752C559.753 47.896 559.969 48.148 560.137 48.508C560.281 48.748 560.377 48.976 560.425 49.192C560.497 49.384 560.533 49.576 560.533 49.768C560.533 50.248 560.245 50.704 559.669 51.136C559.093 51.544 558.277 51.88 557.221 52.144C556.189 52.432 554.965 52.576 553.549 52.576ZM548.725 42.244H556.105C556.513 42.244 556.825 42.184 557.041 42.064C557.257 41.92 557.365 41.632 557.365 41.2C557.365 40.648 557.197 40.156 556.861 39.724C556.525 39.268 556.069 38.92 555.493 38.68C554.917 38.416 554.245 38.284 553.477 38.284C552.589 38.284 551.785 38.464 551.065 38.824C550.345 39.16 549.769 39.628 549.337 40.228C548.929 40.828 548.725 41.5 548.725 42.244ZM581.345 52.432C580.841 52.432 580.421 52.348 580.085 52.18C579.749 52.012 579.485 51.736 579.293 51.352L572.741 37.636C572.381 36.916 572.285 36.34 572.453 35.908C572.621 35.476 573.053 35.092 573.749 34.756C574.469 34.396 575.045 34.276 575.477 34.396C575.909 34.516 576.293 34.96 576.629 35.728L581.345 46.78L585.989 35.944C586.325 35.152 586.709 34.66 587.141 34.468C587.573 34.252 588.197 34.348 589.013 34.756C589.829 35.164 590.261 35.62 590.309 36.124C590.357 36.604 590.225 37.156 589.913 37.78L583.397 51.352C583.205 51.712 582.941 51.976 582.605 52.144C582.269 52.336 581.849 52.432 581.345 52.432ZM600.16 52.576C599.008 52.576 597.88 52.36 596.776 51.928C595.696 51.472 594.712 50.836 593.824 50.02C592.96 49.204 592.264 48.244 591.736 47.14C591.232 46.036 590.98 44.824 590.98 43.504C590.98 42.232 591.22 41.044 591.7 39.94C592.18 38.836 592.84 37.864 593.68 37.024C594.52 36.184 595.48 35.536 596.56 35.08C597.664 34.6 598.84 34.36 600.088 34.36C601.768 34.36 603.292 34.768 604.66 35.584C606.028 36.376 607.12 37.456 607.936 38.824C608.752 40.192 609.16 41.74 609.16 43.468C609.16 44.836 608.908 46.084 608.404 47.212C607.9 48.316 607.216 49.276 606.352 50.092C605.488 50.884 604.516 51.496 603.436 51.928C602.38 52.36 601.288 52.576 600.16 52.576ZM600.088 48.328C600.88 48.328 601.636 48.136 602.356 47.752C603.1 47.344 603.7 46.768 604.156 46.024C604.636 45.28 604.876 44.404 604.876 43.396C604.876 42.46 604.66 41.632 604.228 40.912C603.82 40.192 603.256 39.628 602.536 39.22C601.816 38.812 600.988 38.608 600.052 38.608C599.164 38.608 598.36 38.824 597.64 39.256C596.92 39.664 596.344 40.24 595.912 40.984C595.504 41.704 595.3 42.52 595.3 43.432C595.3 44.44 595.528 45.316 595.984 46.06C596.44 46.78 597.028 47.344 597.748 47.752C598.492 48.136 599.272 48.328 600.088 48.328ZM620.557 52.432C619.405 52.432 618.277 52.24 617.173 51.856C616.093 51.448 615.109 50.86 614.221 50.092C613.357 49.324 612.661 48.388 612.133 47.284C611.629 46.156 611.377 44.884 611.377 43.468C611.377 42.052 611.629 40.792 612.133 39.688C612.661 38.584 613.357 37.648 614.221 36.88C615.085 36.112 616.057 35.524 617.137 35.116C618.217 34.708 619.333 34.504 620.485 34.504C621.325 34.504 622.117 34.624 622.861 34.864C623.629 35.104 624.289 35.392 624.841 35.728C625.393 36.064 625.789 36.4 626.029 36.736C626.341 37.024 626.605 37.3 626.821 37.564C627.037 37.828 627.109 38.152 627.037 38.536C626.965 38.776 626.857 39.004 626.713 39.22C626.569 39.412 626.389 39.616 626.173 39.832C625.597 40.48 625.033 40.72 624.481 40.552C624.169 40.384 623.857 40.204 623.545 40.012C623.233 39.82 622.909 39.64 622.573 39.472C622.261 39.28 621.937 39.124 621.601 39.004C621.265 38.884 620.893 38.824 620.485 38.824C619.573 38.824 618.757 39.028 618.037 39.436C617.341 39.82 616.789 40.36 616.381 41.056C615.997 41.752 615.805 42.556 615.805 43.468C615.805 44.38 615.997 45.196 616.381 45.916C616.789 46.612 617.341 47.164 618.037 47.572C618.733 47.956 619.525 48.148 620.413 48.148C620.845 48.148 621.253 48.1 621.637 48.004C622.045 47.884 622.405 47.74 622.717 47.572C623.029 47.38 623.281 47.188 623.473 46.996C623.737 46.828 623.977 46.672 624.193 46.528C624.409 46.384 624.637 46.312 624.877 46.312C625.165 46.312 625.441 46.42 625.705 46.636C625.993 46.828 626.305 47.14 626.641 47.572C626.953 47.932 627.121 48.28 627.145 48.616C627.193 48.952 627.121 49.276 626.929 49.588C626.761 49.9 626.473 50.188 626.065 50.452C625.777 50.74 625.345 51.04 624.769 51.352C624.217 51.64 623.569 51.892 622.825 52.108C622.105 52.324 621.349 52.432 620.557 52.432ZM638.522 52.576C636.962 52.576 635.594 52.324 634.418 51.82C633.266 51.316 632.294 50.632 631.502 49.768C630.734 48.88 630.146 47.896 629.738 46.816C629.354 45.712 629.162 44.572 629.162 43.396C629.162 41.668 629.558 40.132 630.35 38.788C631.142 37.444 632.234 36.388 633.626 35.62C635.042 34.852 636.662 34.468 638.486 34.468C639.782 34.468 640.922 34.672 641.906 35.08C642.89 35.488 643.706 36.028 644.354 36.7C645.026 37.348 645.53 38.068 645.866 38.86C646.226 39.652 646.406 40.42 646.406 41.164C646.406 42.436 646.094 43.36 645.47 43.936C644.87 44.512 644.114 44.8 643.202 44.8H633.698C633.722 45.616 633.974 46.324 634.454 46.924C634.958 47.524 635.582 47.992 636.326 48.328C637.094 48.64 637.874 48.796 638.666 48.796C639.266 48.796 639.794 48.76 640.25 48.688C640.73 48.616 641.138 48.532 641.474 48.436C641.81 48.316 642.098 48.196 642.338 48.076C642.602 47.956 642.842 47.848 643.058 47.752C643.274 47.656 643.478 47.596 643.67 47.572C643.934 47.548 644.198 47.608 644.462 47.752C644.726 47.896 644.942 48.148 645.11 48.508C645.254 48.748 645.35 48.976 645.398 49.192C645.47 49.384 645.506 49.576 645.506 49.768C645.506 50.248 645.218 50.704 644.642 51.136C644.066 51.544 643.25 51.88 642.194 52.144C641.162 52.432 639.938 52.576 638.522 52.576ZM633.698 42.244H641.078C641.486 42.244 641.798 42.184 642.014 42.064C642.23 41.92 642.338 41.632 642.338 41.2C642.338 40.648 642.17 40.156 641.834 39.724C641.498 39.268 641.042 38.92 640.466 38.68C639.89 38.416 639.218 38.284 638.45 38.284C637.562 38.284 636.758 38.464 636.038 38.824C635.318 39.16 634.742 39.628 634.31 40.228C633.902 40.828 633.698 41.5 633.698 42.244ZM637.766 27.124C637.91 27.124 638.03 27.136 638.126 27.16C638.246 27.184 638.342 27.22 638.414 27.268L642.518 28.96C643.118 29.176 643.478 29.488 643.598 29.896C643.742 30.304 643.67 30.784 643.382 31.336C643.118 31.84 642.83 32.212 642.518 32.452C642.23 32.668 641.93 32.704 641.618 32.56L637.766 30.796L633.914 32.524C633.578 32.668 633.254 32.62 632.942 32.38C632.654 32.14 632.378 31.78 632.114 31.3C631.826 30.748 631.742 30.28 631.862 29.896C632.006 29.488 632.366 29.176 632.942 28.96L637.082 27.268C637.154 27.22 637.25 27.184 637.37 27.16C637.49 27.136 637.622 27.124 637.766 27.124Z" fill="white"/>
</g>
<g filter="url(#filter1_d_23_372)">
<path d="M677.5 14.5834C672.669 14.5831 668.034 16.4895 664.601 19.8881C661.168 23.2867 659.215 27.9029 659.167 32.7334C659.167 45.2917 675.323 59.2709 676.01 59.8667C676.425 60.2218 676.954 60.4169 677.5 60.4169C678.046 60.4169 678.574 60.2218 678.99 59.8667C679.792 59.2709 695.833 45.2917 695.833 32.7334C695.785 27.9029 693.832 23.2867 690.399 19.8881C686.966 16.4895 682.331 14.5831 677.5 14.5834ZM677.5 55.0313C673.673 51.3875 663.75 41.2813 663.75 32.7334C663.75 29.0866 665.199 25.5893 667.777 23.0107C670.356 20.432 673.853 18.9834 677.5 18.9834C681.147 18.9834 684.644 20.432 687.223 23.0107C689.801 25.5893 691.25 29.0866 691.25 32.7334C691.25 41.2125 681.327 51.3875 677.5 55.0313Z" fill="white"/>
<path d="M677.5 23.75C675.914 23.75 674.363 24.2204 673.044 25.1018C671.725 25.9831 670.697 27.2358 670.09 28.7014C669.483 30.167 669.324 31.7797 669.633 33.3356C669.943 34.8915 670.707 36.3207 671.828 37.4424C672.95 38.5642 674.379 39.3281 675.935 39.6375C677.491 39.947 679.104 39.7882 680.569 39.1811C682.035 38.574 683.288 37.546 684.169 36.227C685.05 34.908 685.521 33.3572 685.521 31.7708C685.521 29.6436 684.676 27.6034 683.172 26.0992C681.667 24.5951 679.627 23.75 677.5 23.75ZM677.5 35.2083C676.82 35.2083 676.155 35.0067 675.59 34.629C675.025 34.2513 674.584 33.7144 674.324 33.0863C674.064 32.4582 673.996 31.767 674.129 31.1002C674.261 30.4334 674.589 29.8209 675.069 29.3402C675.55 28.8594 676.163 28.532 676.829 28.3994C677.496 28.2667 678.187 28.3348 678.815 28.595C679.444 28.8552 679.98 29.2958 680.358 29.8611C680.736 30.4264 680.937 31.091 680.937 31.7708C680.937 32.6825 680.575 33.5569 679.931 34.2015C679.286 34.8462 678.412 35.2083 677.5 35.2083Z" fill="white"/>
</g>
<defs>
<filter id="filter0_d_23_372" x="26.304" y="26.512" width="624.102" height="41.084" filterUnits="userSpaceOnUse" color-interpolation-filters="sRGB">
<feFlood flood-opacity="0" result="BackgroundImageFix"/>
<feColorMatrix in="SourceAlpha" type="matrix" values="0 0 0 0 0 0 0 0 0 0 0 0 0 0 0 0 0 0 127 0" result="hardAlpha"/>
<feOffset dy="4"/>
<feGaussianBlur stdDeviation="2"/>
<feComposite in2="hardAlpha" operator="out"/>
<feColorMatrix type="matrix" values="0 0 0 0 0 0 0 0 0 0 0 0 0 0 0 0 0 0 0.25 0"/>
<feBlend mode="normal" in2="BackgroundImageFix" result="effect1_dropShadow_23_372"/>
<feBlend mode="normal" in="SourceGraphic" in2="effect1_dropShadow_23_372" result="shape"/>
</filter>
<filter id="filter1_d_23_372" x="655.167" y="14.5834" width="44.6666" height="53.8335" filterUnits="userSpaceOnUse" color-interpolation-filters="sRGB">
<feFlood flood-opacity="0" result="BackgroundImageFix"/>
<feColorMatrix in="SourceAlpha" type="matrix" values="0 0 0 0 0 0 0 0 0 0 0 0 0 0 0 0 0 0 127 0" result="hardAlpha"/>
<feOffset dy="4"/>
<feGaussianBlur stdDeviation="2"/>
<feComposite in2="hardAlpha" operator="out"/>
<feColorMatrix type="matrix" values="0 0 0 0 0 0 0 0 0 0 0 0 0 0 0 0 0 0 0.25 0"/>
<feBlend mode="normal" in2="BackgroundImageFix" result="effect1_dropShadow_23_372"/>
<feBlend mode="normal" in="SourceGraphic" in2="effect1_dropShadow_23_372" result="shape"/>
</filter>
</defs>
</svg>
