<svg width="74" height="74" fill="none" xmlns="http://www.w3.org/2000/svg"><circle cx="37" cy="37" r="37" fill="#AC65E4"/><path d="M14.188 40.14H51.99l-11.57 13.702a3.133 3.133 0 0 0-.724 2.3 3.133 3.133 0 0 0 1.138 2.131 3.222 3.222 0 0 0 4.494-.408l15.938-18.856c.107-.15.203-.307.287-.471 0-.157.16-.252.223-.409.144-.36.22-.743.223-1.131a3.103 3.103 0 0 0-.223-1.131c0-.157-.16-.252-.223-.409a3.735 3.735 0 0 0-.287-.471L45.329 16.13c-.3-.354-.675-.64-1.099-.835A3.226 3.226 0 0 0 42.875 15a3.216 3.216 0 0 0-2.04.723 3.15 3.15 0 0 0-.785.953 3.108 3.108 0 0 0 .37 3.478l11.571 13.701H14.188a3.21 3.21 0 0 0-2.254.92A3.12 3.12 0 0 0 11 36.999c0 .834.336 1.633.934 2.222a3.21 3.21 0 0 0 2.254.92Z" fill="#fff"/></svg>