<svg width="40" height="40" fill="none" xmlns="http://www.w3.org/2000/svg"><path d="M30.738 40a30.747 30.747 0 0 1-21.723-9.033A30.87 30.87 0 0 1 0 9.2c0-2.44.967-4.78 2.69-6.505A9.172 9.172 0 0 1 9.181 0a7.85 7.85 0 0 1 1.537.14c.49.073.97.193 1.437.36A1.996 1.996 0 0 1 13.453 2l2.735 12a2.004 2.004 0 0 1-.52 1.84c-.259.28-.279.3-2.734 1.58a19.8 19.8 0 0 0 9.72 9.78c1.298-2.48 1.318-2.5 1.598-2.76a1.996 1.996 0 0 1 1.836-.52l11.976 2.74a1.995 1.995 0 0 1 1.437 1.3c.169.474.295.963.38 1.46.08.502.12 1.01.119 1.52a9.209 9.209 0 0 1-2.767 6.443A9.172 9.172 0 0 1 30.74 40Z" fill="#231F20"/></svg>