<svg width="90" height="80" fill="none" xmlns="http://www.w3.org/2000/svg"><path d="m75.87 16.851-14.443-6.525H58.467l-12.963 5.837-12.962-5.837h-.18L31.927 10H29.76L15.32 16.525a3.614 3.614 0 0 0-1.75 1.43 3.637 3.637 0 0 0-.561 2.195v44.225a3.636 3.636 0 0 0 1.66 3.045 3.6 3.6 0 0 0 1.95.58 3.599 3.599 0 0 0 1.481-.326l12.962-5.837 12.963 5.837h.18a3.058 3.058 0 0 0 2.6 0h.18l12.963-5.837 12.962 5.837c.465.212.97.324 1.48.326a3.6 3.6 0 0 0 1.95-.58A3.636 3.636 0 0 0 78 64.375V20.15a3.635 3.635 0 0 0-.58-1.964 3.615 3.615 0 0 0-1.55-1.335Zm-41.198 2.393 7.221 3.226v36.25l-7.221-3.226v-36.25Zm36.107 39.512-7.222-3.226V19.28l7.222 3.226v36.25Z" fill="#231F20"/></svg>