<svg width="90" height="80" viewBox="0 0 90 80" fill="none" xmlns="http://www.w3.org/2000/svg">
<path d="M75.8697 16.8512L61.427 10.3263H61.2465H60.8132H60.3799H59.4773H59.1162H58.6468H58.4663L45.504 16.1625L32.5417 10.3263H32.3611L31.9278 10H31.4946H30.5919H30.2308H29.7614L15.3188 16.525C14.5984 16.8021 13.9854 17.3036 13.5695 17.9559C13.1537 18.6083 12.9569 19.3772 13.0079 20.15V64.375C13.0089 64.9815 13.1615 65.5781 13.4517 66.1101C13.7419 66.6421 14.1604 67.0925 14.6688 67.42C15.25 67.7969 15.9267 67.9982 16.6186 68C17.1295 67.9976 17.6341 67.8864 18.099 67.6737L31.0613 61.8375L44.0236 67.6737H44.2041C44.611 67.8648 45.0548 67.9637 45.504 67.9637C45.9532 67.9637 46.3969 67.8648 46.8038 67.6737H46.9843L59.9466 61.8375L72.909 67.6737C73.3739 67.8864 73.8784 67.9976 74.3893 68C75.0812 67.9982 75.7579 67.7969 76.3391 67.42C76.8476 67.0925 77.2661 66.6421 77.5562 66.1101C77.8464 65.5781 77.999 64.9815 78 64.375V20.15C77.9986 19.4527 77.7968 18.7706 77.419 18.1855C77.0411 17.6004 76.5032 17.1371 75.8697 16.8512ZM34.6719 19.2438L41.8933 22.47V58.72L34.6719 55.4937V19.2438ZM70.7787 58.7563L63.5573 55.53V19.28L70.7787 22.5062V58.7563Z" fill="#231F20"/>
</svg>
