<svg width="66" height="59" viewBox="0 0 66 59" fill="none" xmlns="http://www.w3.org/2000/svg">
<path d="M63.8736 0.886559C63.4525 0.545887 62.9603 0.303926 62.4334 0.178463C61.9064 0.0529993 61.3581 0.0472229 60.8286 0.161559L32.6261 6.50531L4.42359 0.0890595C3.88573 -0.0324165 3.32725 -0.0295884 2.79065 0.0973271C2.25404 0.224243 1.75347 0.471901 1.32701 0.821454C0.900557 1.17101 0.559466 1.61324 0.3297 2.1145C0.0999336 2.61575 -0.0124528 3.16282 0.00109432 3.71406V47.9391C-0.0193856 48.777 0.251164 49.5962 0.766692 50.2571C1.28222 50.9181 2.01086 51.3799 2.82859 51.5641L31.8286 58.0891H32.6261H33.4236L62.4236 51.5641C63.2413 51.3799 63.97 50.9181 64.4855 50.2571C65.001 49.5962 65.2716 48.777 65.2511 47.9391V3.71406C65.2486 3.16957 65.1234 2.63263 64.885 2.14313C64.6465 1.65363 64.3008 1.22414 63.8736 0.886559ZM7.25109 8.24531L29.0011 13.1391V49.9328L7.25109 45.0391V8.24531ZM58.0011 45.0391L36.2511 49.9328V13.1391L58.0011 8.24531V45.0391Z" fill="#231F20"/>
</svg>
