<svg width="65" height="72" viewBox="0 0 65 72" fill="none" xmlns="http://www.w3.org/2000/svg">
<path d="M62.9056 29.4391L35.0641 1.0651C34.7284 0.727604 34.329 0.459729 33.8889 0.276923C33.4489 0.0941174 32.9769 0 32.5002 0C32.0235 0 31.5515 0.0941174 31.1115 0.276923C30.6714 0.459729 30.272 0.727604 29.9363 1.0651L2.09485 29.4751C1.42115 30.1523 0.889086 30.9561 0.529542 31.8401C0.169999 32.724 -0.00985747 33.6703 0.000416591 34.6241V64.7985C-0.00238137 66.6418 0.70376 68.4159 1.97342 69.7557C3.24309 71.0954 4.9796 71.8986 6.82537 72H58.175C60.0208 71.8986 61.7573 71.0954 63.027 69.7557C64.2966 68.4159 65.0028 66.6418 65 64.7985V34.6241C65.0029 32.6903 64.2518 30.8311 62.9056 29.4391ZM25.278 64.7985V43.1939H39.7224V64.7985H25.278ZM57.7778 64.7985H46.9446V39.5932C46.9446 38.6382 46.5641 37.7223 45.8869 37.0471C45.2097 36.3718 44.2912 35.9924 43.3335 35.9924H21.6669C20.7092 35.9924 19.7907 36.3718 19.1135 37.0471C18.4363 37.7223 18.0559 38.6382 18.0559 39.5932V64.7985H7.22259V34.4801L32.5002 8.73471L57.7778 34.6241V64.7985Z" fill="black"/>
</svg>
