<svg width="65" height="72" fill="none" xmlns="http://www.w3.org/2000/svg"><path d="M62.906 29.44 35.064 1.064A3.611 3.611 0 0 0 32.5 0a3.62 3.62 0 0 0-2.564 1.065L2.095 29.475A7.2 7.2 0 0 0 0 34.625v30.174a7.19 7.19 0 0 0 1.973 4.957A7.231 7.231 0 0 0 6.825 72h51.35a7.231 7.231 0 0 0 4.852-2.244A7.19 7.19 0 0 0 65 64.799V34.624a7.442 7.442 0 0 0-2.094-5.185ZM25.278 64.798V43.194h14.444v21.605H25.278Zm32.5 0H46.945V39.593c0-.955-.38-1.87-1.058-2.546a3.616 3.616 0 0 0-2.553-1.055H21.666c-.958 0-1.876.38-2.554 1.055a3.595 3.595 0 0 0-1.057 2.546V64.8H7.223V34.48L32.5 8.735l25.278 25.89v30.174Z" fill="#000"/></svg>